<?xml version="1.0" encoding="UTF-8"?>
<!DOCTYPE svg PUBLIC "-//W3C//DTD SVG 1.1//EN" "http://www.w3.org/Graphics/SVG/1.1/DTD/svg11.dtd">
<svg version="1.2" width="125.78mm" height="170.67mm" viewBox="0 0 12578 17067" preserveAspectRatio="xMidYMid" fill-rule="evenodd" stroke-width="28.222" stroke-linejoin="round" xmlns="http://www.w3.org/2000/svg" xmlns:ooo="http://xml.openoffice.org/svg/export" xmlns:xlink="http://www.w3.org/1999/xlink" xmlns:presentation="http://sun.com/xmlns/staroffice/presentation" xmlns:smil="http://www.w3.org/2001/SMIL20/" xmlns:anim="urn:oasis:names:tc:opendocument:xmlns:animation:1.0" xml:space="preserve">
 <defs class="ClipPathGroup">
  <clipPath id="presentation_clip_path" clipPathUnits="userSpaceOnUse">
   <rect x="0" y="0" width="12578" height="17067"/>
  </clipPath>
  <clipPath id="presentation_clip_path_shrink" clipPathUnits="userSpaceOnUse">
   <rect x="12" y="17" width="12553" height="17033"/>
  </clipPath>
 </defs>
 <defs class="TextShapeIndex">
  <g ooo:slide="id1" ooo:id-list="id3 id4 id5 id6 id7 id8 id9 id10 id11 id12 id13 id14 id15 id16 id17 id18 id19 id20 id21 id22 id23 id24 id25 id26 id27 id28 id29 id30 id31 id32 id33 id34 id35 id36 id37 id38 id39 id40 id41 id42 id43 id44 id45 id46 id47 id48 id49 id50 id51 id52 id53 id54 id55 id56 id57 id58 id59 id60 id61 id62"/>
 </defs>
 <defs class="EmbeddedBulletChars">
  <g id="bullet-char-template-57356" transform="scale(0.00048828125,-0.00048828125)">
   <path d="M 580,1141 L 1163,571 580,0 -4,571 580,1141 Z"/>
  </g>
  <g id="bullet-char-template-57354" transform="scale(0.00048828125,-0.00048828125)">
   <path d="M 8,1128 L 1137,1128 1137,0 8,0 8,1128 Z"/>
  </g>
  <g id="bullet-char-template-10146" transform="scale(0.00048828125,-0.00048828125)">
   <path d="M 174,0 L 602,739 174,1481 1456,739 174,0 Z M 1358,739 L 309,1346 659,739 1358,739 Z"/>
  </g>
  <g id="bullet-char-template-10132" transform="scale(0.00048828125,-0.00048828125)">
   <path d="M 2015,739 L 1276,0 717,0 1260,543 174,543 174,936 1260,936 717,1481 1274,1481 2015,739 Z"/>
  </g>
  <g id="bullet-char-template-10007" transform="scale(0.00048828125,-0.00048828125)">
   <path d="M 0,-2 C -7,14 -16,27 -25,37 L 356,567 C 262,823 215,952 215,954 215,979 228,992 255,992 264,992 276,990 289,987 310,991 331,999 354,1012 L 381,999 492,748 772,1049 836,1024 860,1049 C 881,1039 901,1025 922,1006 886,937 835,863 770,784 769,783 710,716 594,584 L 774,223 C 774,196 753,168 711,139 L 727,119 C 717,90 699,76 672,76 641,76 570,178 457,381 L 164,-76 C 142,-110 111,-127 72,-127 30,-127 9,-110 8,-76 1,-67 -2,-52 -2,-32 -2,-23 -1,-13 0,-2 Z"/>
  </g>
  <g id="bullet-char-template-10004" transform="scale(0.00048828125,-0.00048828125)">
   <path d="M 285,-33 C 182,-33 111,30 74,156 52,228 41,333 41,471 41,549 55,616 82,672 116,743 169,778 240,778 293,778 328,747 346,684 L 369,508 C 377,444 397,411 428,410 L 1163,1116 C 1174,1127 1196,1133 1229,1133 1271,1133 1292,1118 1292,1087 L 1292,965 C 1292,929 1282,901 1262,881 L 442,47 C 390,-6 338,-33 285,-33 Z"/>
  </g>
  <g id="bullet-char-template-9679" transform="scale(0.00048828125,-0.00048828125)">
   <path d="M 813,0 C 632,0 489,54 383,161 276,268 223,411 223,592 223,773 276,916 383,1023 489,1130 632,1184 813,1184 992,1184 1136,1130 1245,1023 1353,916 1407,772 1407,592 1407,412 1353,268 1245,161 1136,54 992,0 813,0 Z"/>
  </g>
  <g id="bullet-char-template-8226" transform="scale(0.00048828125,-0.00048828125)">
   <path d="M 346,457 C 273,457 209,483 155,535 101,586 74,649 74,723 74,796 101,859 155,911 209,963 273,989 346,989 419,989 480,963 531,910 582,859 608,796 608,723 608,648 583,586 532,535 482,483 420,457 346,457 Z"/>
  </g>
  <g id="bullet-char-template-8211" transform="scale(0.00048828125,-0.00048828125)">
   <path d="M -4,459 L 1135,459 1135,606 -4,606 -4,459 Z"/>
  </g>
  <g id="bullet-char-template-61548" transform="scale(0.00048828125,-0.00048828125)">
   <path d="M 173,740 C 173,903 231,1043 346,1159 462,1274 601,1332 765,1332 928,1332 1067,1274 1183,1159 1299,1043 1357,903 1357,740 1357,577 1299,437 1183,322 1067,206 928,148 765,148 601,148 462,206 346,322 231,437 173,577 173,740 Z"/>
  </g>
 </defs>
 <g>
  <g id="id2" class="Master_Slide">
   <g id="bg-id2" class="Background"/>
   <g id="bo-id2" class="BackgroundObjects"/>
  </g>
 </g>
 <g class="SlideGroup">
  <g>
   <g id="container-id1">
    <g id="id1" class="Slide" clip-path="url(#presentation_clip_path)">
     <g class="Page">
      <g class="com.sun.star.drawing.PolyPolygonShape">
       <g id="id3">
        <rect class="BoundingBox" stroke="none" fill="none" x="150" y="3138" width="1514" height="1333"/>
        <path fill="rgb(255,222,89)" stroke="none" d="M 151,3232 L 331,4092 482,4470 794,4234 1115,4054 1323,3922 1663,3724 1437,3516 1134,3336 907,3138 718,3213 151,3232 Z"/>
       </g>
      </g>
      <g class="com.sun.star.drawing.PolyPolygonShape">
       <g id="id4">
        <rect class="BoundingBox" stroke="none" fill="none" x="888" y="2608" width="2156" height="2326"/>
        <path fill="rgb(255,245,206)" stroke="none" d="M 2060,2608 L 1767,2646 1484,2854 1191,2930 888,3175 1096,3317 1512,3629 1635,3676 1569,4111 2098,4735 2155,4933 2344,4886 2646,4687 2930,4461 3043,4385 2759,4045 2750,3516 2693,3090 2381,2854 2344,2807 2060,2608 Z"/>
       </g>
      </g>
      <g class="com.sun.star.drawing.ClosedBezierShape">
       <g id="id5">
        <rect class="BoundingBox" stroke="none" fill="none" x="18" y="23" width="12533" height="17021"/>
        <path fill="rgb(0,0,0)" stroke="none" d="M 6934,16992 C 6841,16986 6769,16968 6763,16951 6758,16935 6699,16861 6633,16788 L 6512,16654 6512,16458 C 6512,16343 6500,16254 6485,16244 6470,16235 6426,16159 6387,16076 6349,15992 6277,15879 6228,15824 6118,15701 6117,15634 6218,15475 6374,15232 6429,14991 6355,14881 6336,14854 6291,14731 6253,14609 6215,14486 6170,14352 6152,14311 6134,14270 6113,14186 6104,14125 6095,14064 6078,13958 6064,13889 6004,13582 5990,13369 6014,13123 6028,12985 6037,12856 6034,12835 6026,12773 6067,12356 6090,12277 6211,11850 6034,11561 5220,10862 5187,10834 5092,10736 5009,10645 4801,10417 4794,10420 4761,10764 4752,10860 4730,10955 4713,10975 4696,10996 4668,11093 4652,11192 4636,11291 4612,11378 4600,11386 4563,11408 4574,11651 4614,11728 4659,11815 4749,11989 4779,12047 4791,12071 4800,12102 4800,12117 4800,12131 4833,12213 4873,12297 4913,12382 4953,12490 4962,12538 4972,12585 4988,12636 4997,12649 5062,12741 5073,12856 5112,13914 5123,14187 5145,14410 5176,14547 5202,14663 5234,14819 5249,14894 5263,14969 5293,15081 5314,15142 5454,15548 5498,15849 5422,15873 5396,15881 5352,15926 5324,15973 5295,16023 5246,16065 5207,16075 5170,16084 5119,16113 5092,16140 5066,16166 5009,16203 4966,16221 4922,16239 4837,16305 4777,16368 4716,16430 4657,16481 4647,16481 4636,16481 4552,16533 4459,16597 4258,16735 4066,16828 3981,16828 3946,16828 3857,16845 3783,16864 3672,16893 3638,16894 3597,16868 3570,16851 3460,16810 3352,16777 3097,16699 3068,16659 3121,16462 3142,16384 3167,16264 3175,16195 3199,16013 3189,16021 3637,15795 3941,15641 4119,15453 4143,15259 4178,14979 4149,14590 4087,14511 4056,14473 4031,14428 4031,14413 4031,14398 4013,14352 3992,14311 3971,14270 3916,14131 3871,14001 3825,13871 3764,13711 3734,13645 3704,13579 3659,13456 3634,13372 3608,13288 3536,13075 3474,12897 3411,12720 3353,12547 3344,12513 3336,12479 3294,12410 3251,12359 3060,12134 2999,11849 3062,11464 3125,11073 3107,10601 3016,10231 2970,10047 2923,9854 2911,9803 2883,9689 2859,9687 2795,9791 2767,9836 2716,9899 2681,9932 2646,9965 2618,10002 2618,10015 2618,10028 2584,10077 2543,10123 2502,10170 2469,10230 2469,10257 2469,10424 2320,10294 2269,10082 2251,10007 2226,9932 2214,9916 2136,9810 2199,9225 2319,8954 2362,8855 2365,8790 2327,8715 2286,8633 2299,8382 2346,8335 2359,8322 2370,8287 2370,8257 2370,8227 2388,8145 2411,8075 L 2452,7948 2361,7864 C 2311,7819 2270,7769 2270,7755 2270,7740 2209,7688 2134,7638 1918,7495 1922,7469 2209,7189 2447,6957 2616,6838 2666,6870 2774,6936 2419,6519 2299,6439 2124,6321 2088,6178 2070,5531 2054,4920 2029,4782 1910,4650 1880,4616 1840,4560 1823,4526 1806,4492 1743,4408 1685,4339 1520,4145 1467,4005 1557,4005 1601,4005 1848,4284 1910,4405 1943,4468 2040,4582 2126,4659 L 2283,4799 2221,4851 2159,4902 2255,4889 C 2308,4882 2375,4855 2404,4829 2433,4803 2528,4733 2615,4673 2702,4613 2818,4523 2873,4473 L 2973,4382 2843,4218 C 2706,4047 2684,4035 2608,4092 2525,4155 2480,4064 2553,3983 2653,3871 2708,3264 2631,3116 2570,2997 2121,2730 1931,2699 1805,2678 1833,2719 2017,2826 2235,2954 2345,3037 2345,3078 2345,3142 2291,3142 2201,3080 1618,2675 1628,2679 1550,2867 1510,2963 1538,2994 1726,3064 1890,3126 2096,3344 2097,3456 2097,3545 2020,3513 1957,3399 1879,3257 1832,3216 1650,3135 1562,3095 1457,3046 1419,3026 1332,2981 1221,2977 1234,3021 1239,3038 1302,3081 1373,3118 1445,3155 1541,3218 1588,3258 1634,3299 1692,3340 1717,3349 1785,3373 1906,3529 1889,3572 1866,3631 1841,3617 1661,3445 1363,3160 1194,3116 907,3251 719,3339 701,3343 553,3324 177,3277 199,3245 267,3751 322,4156 311,4153 695,3894 777,3839 894,3772 956,3747 1419,3552 1401,3574 1191,3442 1050,3351 982,3262 1055,3262 1133,3262 1464,3468 1574,3584 1729,3749 1713,3823 1547,3705 1437,3627 1016,3735 850,3883 833,3898 779,3934 730,3964 527,4088 491,4117 462,4183 388,4351 483,4398 639,4271 738,4190 1293,3906 1351,3906 1395,3906 1381,3981 1334,3995 1310,4002 1257,4026 1216,4048 927,4203 853,4252 729,4366 595,4488 477,4541 401,4512 339,4488 277,4289 75,3473 51,3378 26,3280 20,3257 2,3192 95,3170 336,3181 649,3197 647,3197 811,3148 897,3122 996,3071 1040,3030 1133,2942 1265,2866 1321,2866 1344,2866 1413,2811 1475,2745 1754,2449 2024,2441 2300,2723 2380,2804 2421,2808 2481,2742 2506,2714 2541,2692 2559,2692 2577,2692 2627,2653 2671,2605 2731,2539 2769,2518 2832,2518 2896,2518 2915,2508 2915,2473 2915,2428 3007,2369 3076,2369 3095,2369 3125,2349 3143,2325 3223,2214 3529,2157 3590,2241 3694,2385 3705,2262 3609,2022 3487,1719 3305,1160 3275,1001 3222,720 3613,634 3684,911 3714,1024 3792,1287 3911,1669 3950,1795 3982,1922 3982,1950 3982,2039 4079,2221 4126,2221 4186,2221 4285,2148 4227,2147 4107,2145 4048,1451 4144,1179 4427,382 5211,-48 6234,33 L 6584,61 6838,192 C 7208,383 7471,688 7518,979 7556,1222 7565,1226 7836,1143 7947,1109 8126,1063 8236,1041 8345,1019 8505,979 8592,953 8680,927 8776,906 8807,906 8838,906 8912,885 8972,860 9031,834 9130,806 9191,797 9251,788 9407,752 9537,716 9961,601 10016,587 10442,486 10906,375 11042,340 11409,235 11546,196 11702,157 11757,149 11811,140 11889,123 11930,111 11977,97 12042,99 12104,115 12158,129 12281,154 12376,170 12593,207 12597,222 12441,462 12304,673 12241,724 12087,748 12028,757 11920,791 11848,823 11775,854 11691,878 11660,876 11630,873 11522,906 11420,948 11319,990 11192,1036 11137,1050 11083,1064 10987,1092 10926,1113 10864,1133 10680,1190 10516,1239 10353,1289 10102,1367 9958,1413 9815,1460 9531,1544 9326,1602 9121,1659 8883,1738 8797,1777 8710,1816 8554,1864 8449,1884 8265,1919 8213,1932 8112,1971 8029,2003 7898,2040 7702,2087 7600,2112 7514,2133 7511,2134 7508,2135 7489,2339 7468,2587 7426,3081 7432,3123 7553,3250 7724,3428 7721,3757 7548,3757 7527,3757 7503,3774 7495,3794 7488,3814 7446,3839 7402,3850 L 7322,3871 7436,3978 C 7648,4176 7863,4877 7753,5009 7738,5026 7722,5100 7717,5174 7706,5311 7690,5365 7604,5554 7576,5615 7553,5670 7553,5677 7553,5719 7357,6093 7288,6184 7243,6243 7206,6310 7206,6333 7206,6379 7092,6565 6968,6723 6925,6777 6883,6843 6874,6870 6865,6897 6819,6963 6772,7016 6676,7122 6669,7146 6720,7203 6739,7225 6784,7298 6820,7366 6857,7434 6942,7580 7009,7689 7076,7798 7131,7904 7132,7925 7132,7967 7552,8388 7660,8455 7761,8517 7748,8641 7636,8679 L 7557,8706 7605,8764 C 7631,8796 7653,8837 7653,8855 7653,8873 7681,8921 7715,8962 7750,9004 7812,9113 7853,9206 7894,9299 7943,9403 7962,9438 8047,9593 8151,9964 8122,10011 8086,10070 7869,10044 7590,9947 7277,9839 7194,9898 7346,10119 7365,10146 7380,10198 7380,10235 7380,10272 7391,10309 7405,10318 7418,10326 7429,10365 7429,10405 7429,10444 7440,10502 7453,10534 7503,10657 7660,11272 7692,11471 7700,11519 7712,11641 7719,11744 7736,11962 7815,12086 8126,12373 8224,12464 8322,12571 8344,12612 8366,12652 8435,12740 8495,12806 8556,12873 8646,12980 8693,13044 8741,13108 8848,13241 8931,13339 9014,13437 9123,13573 9172,13641 9302,13820 9541,14166 9599,14260 9626,14304 9696,14394 9754,14460 10266,15039 9911,15233 9353,14679 9218,14545 9059,14407 9001,14373 8943,14338 8829,14226 8748,14124 8668,14021 8564,13907 8517,13870 8302,13696 8054,13434 8009,13331 7989,13284 7663,12984 7632,12984 7620,12984 7602,13073 7592,13182 7583,13291 7565,13387 7552,13394 7539,13402 7529,13444 7529,13488 7528,13607 7430,13937 7351,14085 7312,14157 7274,14613 7288,14832 7306,15114 7458,15415 7696,15640 7944,15876 8000,15952 8000,16057 7999,16225 7839,16643 7690,16866 7663,16907 7628,16963 7613,16990 7581,17048 7514,17055 7268,17025 7173,17013 7022,16999 6934,16992 Z"/>
       </g>
      </g>
      <g class="com.sun.star.drawing.ClosedBezierShape">
       <g id="id6">
        <rect class="BoundingBox" stroke="none" fill="none" x="5825" y="9582" width="1778" height="5755"/>
        <path fill="rgb(21,132,102)" stroke="none" d="M 7126,15297 C 7218,15248 7218,15249 7169,15068 7082,14745 7136,14332 7343,13728 7374,13640 7410,13494 7425,13406 7549,12656 7548,12425 7423,12597 7360,12683 7241,12747 7216,12707 7205,12690 7226,12657 7266,12626 7563,12400 7696,12166 7528,12166 7472,12166 7231,12377 7231,12426 7231,12473 7133,12587 7093,12587 7073,12587 7058,12568 7058,12544 7058,12485 7281,12141 7319,12141 7570,12141 7589,11679 7374,10839 7332,10675 7289,10485 7279,10417 7268,10349 7237,10204 7210,10095 7183,9985 7151,9853 7140,9800 7126,9736 7093,9683 7041,9643 L 6963,9583 6947,9802 C 6906,10366 6811,10532 6620,10371 6580,10338 6501,10286 6443,10256 6317,10190 6082,9964 6025,9853 5897,9601 5826,9591 5864,9830 5882,9946 5867,10187 5827,10432 5813,10522 5947,10960 6029,11089 6047,11118 6069,11182 6078,11231 6088,11281 6128,11372 6167,11434 6207,11496 6239,11570 6239,11597 6239,11624 6262,11692 6290,11748 6334,11834 6338,11859 6312,11921 6294,11964 6289,12034 6299,12097 6314,12192 6459,12508 6643,12848 6767,13076 6792,13134 6774,13151 6763,13162 6741,13150 6726,13125 6710,13100 6650,13016 6592,12939 6534,12861 6439,12706 6381,12594 6255,12347 6206,12329 6167,12514 6116,12751 6145,13586 6211,13778 6223,13812 6252,13929 6276,14038 6328,14282 6427,14592 6504,14756 6536,14824 6561,14898 6561,14922 6561,14946 6573,14972 6586,14981 6600,14989 6611,15046 6611,15107 6611,15205 6620,15224 6685,15261 6726,15284 6760,15309 6760,15316 6760,15351 7052,15336 7126,15297 Z"/>
       </g>
      </g>
      <g class="com.sun.star.drawing.ClosedBezierShape">
       <g id="id7">
        <rect class="BoundingBox" stroke="none" fill="none" x="3121" y="9718" width="2013" height="5450"/>
        <path fill="rgb(21,132,102)" stroke="none" d="M 4942,15109 C 4985,15086 5043,15068 5070,15068 5142,15068 5147,15045 5108,14894 5061,14712 5027,14392 5022,14088 5020,13951 5009,13723 4997,13579 4984,13436 4969,13230 4963,13121 4942,12746 4604,11918 4601,12234 4601,12285 4583,12433 4563,12562 4543,12692 4515,12915 4502,13057 4479,13313 4445,13413 4415,13317 4407,13291 4390,13251 4379,13229 4366,13204 4368,13178 4386,13160 4432,13114 4526,11893 4484,11893 4459,11893 4427,12071 4415,12277 4382,12836 4354,13034 4305,13034 4271,13034 4299,12274 4339,12091 4358,12003 4387,11869 4403,11794 4419,11719 4453,11568 4479,11459 4643,10758 4643,10716 4480,10580 4248,10385 4094,10137 4008,9816 3972,9682 3957,9684 3889,9829 3859,9893 3781,10013 3716,10096 3581,10266 3545,10319 3511,10398 3449,10543 3268,10366 3149,10045 3105,9926 3114,10089 3165,10333 3223,10612 3237,11374 3188,11583 3115,11889 3161,11969 3491,12114 3704,12208 3777,12290 3648,12290 3613,12290 3565,12279 3541,12265 3473,12226 3278,12167 3264,12181 3228,12217 3337,12330 3449,12372 3517,12398 3617,12440 3672,12465 3726,12491 3792,12515 3819,12518 3882,12528 3900,12587 3840,12587 3814,12587 3733,12570 3661,12548 3484,12496 3485,12484 3623,12897 3642,12952 3698,13130 3748,13294 3798,13458 3860,13621 3886,13658 3911,13694 3932,13761 3933,13806 3933,13864 3958,13918 4013,13982 4180,14174 4229,14255 4215,14312 4207,14343 4220,14404 4242,14447 4272,14506 4285,14605 4290,14818 4293,14978 4305,15123 4316,15141 4346,15189 4837,15164 4942,15109 Z"/>
       </g>
      </g>
      <g class="com.sun.star.drawing.ClosedBezierShape">
       <g id="id8">
        <rect class="BoundingBox" stroke="none" fill="none" x="4067" y="9283" width="779" height="1272"/>
        <path fill="rgb(21,132,102)" stroke="none" d="M 4769,10144 C 4890,9865 4857,9422 4723,9550 4667,9605 4638,9615 4577,9602 L 4500,9587 4515,9717 C 4524,9788 4545,9886 4562,9933 4614,10075 4633,10213 4600,10202 4562,10189 4489,10000 4428,9757 4397,9631 4358,9543 4314,9496 4278,9457 4219,9388 4185,9343 4106,9240 4073,9267 4067,9443 4059,9677 4176,10052 4302,10194 4327,10221 4351,10256 4356,10271 4376,10332 4590,10542 4642,10553 4644,10553 4659,10495 4675,10423 4691,10352 4733,10226 4769,10144 Z"/>
       </g>
      </g>
      <g class="com.sun.star.drawing.ClosedBezierShape">
       <g id="id9">
        <rect class="BoundingBox" stroke="none" fill="none" x="4927" y="8923" width="856" height="1597"/>
        <path fill="rgb(21,132,102)" stroke="none" d="M 5776,9879 L 5760,9614 5624,9559 C 5549,9528 5455,9476 5415,9443 5305,9349 5317,9485 5445,9772 5476,9840 5509,9941 5519,9995 5529,10050 5545,10114 5555,10138 5565,10162 5563,10181 5550,10181 5508,10181 5376,9859 5136,9171 5051,8929 5023,8876 5023,8962 5023,8991 4999,9074 4970,9145 4904,9311 4917,9571 4996,9683 5024,9723 5048,9776 5048,9801 5051,10139 5627,10704 5719,10460 5774,10316 5792,10134 5776,9879 Z"/>
       </g>
      </g>
      <g class="com.sun.star.drawing.ClosedBezierShape">
       <g id="id10">
        <rect class="BoundingBox" stroke="none" fill="none" x="5856" y="9018" width="1003" height="1306"/>
        <path fill="rgb(21,132,102)" stroke="none" d="M 6715,9412 C 6633,9412 6482,9380 6320,9328 6217,9295 6357,9548 6604,9845 6691,9949 6703,9983 6655,9983 6611,9983 6453,9803 6251,9525 6156,9394 6032,9226 5976,9152 L 5874,9019 5859,9195 C 5843,9384 5897,9546 6021,9678 6049,9708 6085,9754 6100,9780 6223,9991 6348,10115 6561,10235 6756,10345 6740,10342 6781,10278 6913,10065 6864,9413 6715,9412 Z"/>
       </g>
      </g>
      <g class="com.sun.star.drawing.ClosedBezierShape">
       <g id="id11">
        <rect class="BoundingBox" stroke="none" fill="none" x="3135" y="8957" width="754" height="1348"/>
        <path fill="rgb(21,132,102)" stroke="none" d="M 3833,9426 C 3793,9417 3716,9365 3661,9310 L 3561,9210 3531,9281 C 3515,9320 3499,9491 3495,9661 3492,9833 3478,9974 3465,9979 3425,9992 3403,9627 3422,9272 3441,8900 3443,8906 3348,9043 3294,9121 3265,9142 3223,9134 3045,9100 3161,10028 3366,10275 3404,10320 3420,10315 3488,10238 3809,9871 3984,9459 3833,9426 Z"/>
       </g>
      </g>
      <g class="com.sun.star.drawing.ClosedBezierShape">
       <g id="id12">
        <rect class="BoundingBox" stroke="none" fill="none" x="2358" y="8700" width="731" height="1368"/>
        <path fill="rgb(21,132,102)" stroke="none" d="M 2696,9768 C 2724,9743 2781,9656 2822,9574 2863,9492 2923,9393 2956,9355 2988,9316 3015,9266 3015,9243 3016,9220 3032,9180 3052,9154 3111,9076 3096,8976 3012,8880 2922,8778 2902,8783 2879,8910 2869,8961 2847,9031 2829,9065 2811,9099 2765,9210 2726,9311 2654,9500 2585,9611 2556,9583 2541,9567 2704,9101 2742,9053 2771,9017 2866,8762 2866,8721 2866,8662 2799,8736 2784,8812 2766,8898 2584,9025 2500,9008 2423,8994 2419,9005 2387,9296 2313,9974 2386,10242 2564,9948 2609,9875 2668,9794 2696,9768 Z"/>
       </g>
      </g>
      <g class="com.sun.star.drawing.ClosedBezierShape">
       <g id="id13">
        <rect class="BoundingBox" stroke="none" fill="none" x="6913" y="8698" width="1088" height="1235"/>
        <path fill="rgb(21,132,102)" stroke="none" d="M 7999,9872 C 7999,9799 7789,9319 7678,9140 7636,9072 7602,9010 7602,9003 7602,8938 7393,8719 7332,8719 7293,8719 7226,8712 7184,8704 7086,8684 7085,8711 7177,8849 7216,8907 7291,9027 7343,9116 7396,9205 7469,9316 7507,9364 7671,9570 7753,9692 7744,9718 7730,9762 7354,9354 7238,9170 6976,8753 6870,8683 6928,8963 6944,9042 6957,9165 6957,9236 6957,9380 7042,9546 7129,9574 7157,9583 7199,9615 7223,9645 7317,9762 7546,9860 7745,9869 7789,9871 7825,9880 7825,9889 7825,9907 7886,9927 7956,9931 7986,9934 7999,9916 7999,9872 Z"/>
       </g>
      </g>
      <g class="com.sun.star.drawing.ClosedBezierShape">
       <g id="id14">
        <rect class="BoundingBox" stroke="none" fill="none" x="4237" y="7913" width="733" height="1603"/>
        <path fill="rgb(21,132,102)" stroke="none" d="M 4835,7935 C 4705,7902 4668,7998 4626,8471 4579,9015 4566,9104 4540,9091 4499,9071 4525,8451 4577,8211 4626,7983 4620,7913 4553,7913 4469,7913 4441,7982 4393,8303 4372,8449 4333,8633 4306,8712 4200,9029 4216,9235 4357,9366 4539,9537 4627,9555 4732,9445 4981,9184 5062,7992 4835,7935 Z"/>
       </g>
      </g>
      <g class="com.sun.star.drawing.ClosedBezierShape">
       <g id="id15">
        <rect class="BoundingBox" stroke="none" fill="none" x="5057" y="7953" width="723" height="1534"/>
        <path fill="rgb(21,132,102)" stroke="none" d="M 5657,8106 C 5631,7972 5598,7946 5461,7954 5341,7961 5333,7966 5337,8024 5348,8161 5474,8758 5520,8888 5576,9049 5580,9090 5537,9090 5507,9090 5480,9028 5409,8792 5391,8731 5364,8647 5349,8606 5335,8565 5310,8454 5293,8358 5254,8132 5190,7985 5124,7967 5058,7950 5041,7978 5071,8057 5084,8091 5094,8252 5092,8415 5088,9018 5665,9817 5760,9339 5804,9115 5767,8673 5657,8106 Z"/>
       </g>
      </g>
      <g class="com.sun.star.drawing.ClosedBezierShape">
       <g id="id16">
        <rect class="BoundingBox" stroke="none" fill="none" x="2959" y="7417" width="1372" height="1887"/>
        <path fill="rgb(21,132,102)" stroke="none" d="M 4105,9018 C 4106,8971 4127,8888 4153,8832 4209,8710 4327,8059 4329,7860 4329,7829 4153,7794 4099,7815 4052,7833 4016,7957 3970,8260 3894,8753 3879,8818 3839,8818 3810,8818 3806,8800 3819,8738 3834,8660 3881,8368 3932,8025 3976,7726 3998,7756 3666,7650 3533,7607 3480,7599 3459,7620 3424,7655 3363,7909 3362,8023 3361,8167 3278,8645 3254,8645 3225,8645 3254,8157 3301,7845 3350,7521 3350,7516 3249,7454 3135,7383 3099,7412 3078,7597 3069,7675 3046,7812 3027,7901 2917,8417 2937,8642 3111,8862 3293,9092 3563,8759 3560,8307 3560,8281 3576,8182 3597,8087 3617,7991 3640,7871 3648,7820 3665,7703 3734,7690 3734,7804 3734,7901 3638,8459 3608,8538 3456,8939 3857,9542 4049,9203 4080,9148 4105,9065 4105,9018 Z"/>
       </g>
      </g>
      <g class="com.sun.star.drawing.ClosedBezierShape">
       <g id="id17">
        <rect class="BoundingBox" stroke="none" fill="none" x="5761" y="7855" width="1087" height="1454"/>
        <path fill="rgb(21,132,102)" stroke="none" d="M 6159,7855 C 6020,7865 6012,7910 6123,8065 6170,8131 6229,8235 6253,8296 6278,8358 6346,8495 6404,8601 6463,8706 6511,8802 6511,8812 6511,8822 6539,8872 6573,8922 6607,8972 6624,9019 6612,9027 6583,9045 6476,8917 6397,8770 6271,8538 6242,8482 6228,8445 6220,8425 6170,8336 6115,8247 6061,8159 5997,8049 5974,8005 5873,7814 5714,7912 5774,8128 5794,8200 5824,8343 5841,8445 5896,8773 5935,8902 5992,8941 6022,8962 6076,9007 6111,9041 6226,9153 6444,9270 6572,9289 6774,9319 6780,9317 6822,9237 6968,8955 6431,7835 6159,7855 Z"/>
       </g>
      </g>
      <g class="com.sun.star.drawing.ClosedBezierShape">
       <g id="id18">
        <rect class="BoundingBox" stroke="none" fill="none" x="2417" y="7206" width="617" height="1695"/>
        <path fill="rgb(21,132,102)" stroke="none" d="M 2734,8727 C 2769,8661 2811,8591 2829,8570 2846,8550 2879,8371 2902,8173 2941,7827 2953,7757 3015,7496 3031,7430 3037,7369 3029,7361 2991,7323 2934,7442 2853,7728 2744,8111 2747,8105 2720,8088 2698,8075 2793,7696 2890,7418 2938,7277 2941,7206 2897,7206 2878,7206 2717,7524 2717,7563 2717,7575 2685,7653 2645,7736 2606,7820 2554,7955 2531,8037 2508,8119 2470,8250 2445,8329 2360,8606 2485,8988 2626,8881 2651,8862 2700,8793 2734,8727 Z"/>
       </g>
      </g>
      <g class="com.sun.star.drawing.ClosedBezierShape">
       <g id="id19">
        <rect class="BoundingBox" stroke="none" fill="none" x="6474" y="7291" width="1034" height="1305"/>
        <path fill="rgb(21,132,102)" stroke="none" d="M 7500,8573 C 7531,8553 7444,8454 7290,8335 7232,8290 7007,7994 7007,7962 7007,7945 6989,7917 6968,7899 6929,7867 6896,7811 6711,7468 6605,7269 6583,7255 6525,7343 6488,7400 6487,7415 6517,7462 6537,7492 6560,7547 6569,7584 6579,7622 6597,7652 6610,7652 6624,7652 6635,7664 6635,7677 6635,7705 6833,7999 6918,8099 7036,8237 7134,8397 7100,8397 7061,8397 6961,8295 6892,8186 6867,8145 6827,8089 6804,8062 6641,7866 6582,7791 6561,7755 6540,7718 6535,7718 6494,7758 6442,7809 6492,7933 6611,8049 6648,8085 6699,8188 6732,8291 6764,8389 6806,8484 6827,8501 6912,8573 7415,8626 7500,8573 Z"/>
       </g>
      </g>
      <g class="com.sun.star.drawing.ClosedBezierShape">
       <g id="id20">
        <rect class="BoundingBox" stroke="none" fill="none" x="2742" y="6908" width="3696" height="965"/>
        <path fill="rgb(112,110,12)" stroke="none" d="M 6202,7764 C 6356,7742 6437,7693 6437,7621 6436,7512 6406,7496 6280,7538 5868,7678 5298,7690 4354,7579 4012,7538 3445,7324 3338,7195 3321,7174 3266,7150 3217,7141 3101,7120 2998,7069 2896,6979 2817,6911 2742,6886 2742,6930 2742,6955 2871,7065 3076,7216 3735,7697 5212,8005 5950,7814 6020,7796 6133,7773 6202,7764 Z"/>
       </g>
      </g>
      <g class="com.sun.star.drawing.ClosedBezierShape">
       <g id="id21">
        <rect class="BoundingBox" stroke="none" fill="none" x="2250" y="3384" width="5302" height="4177"/>
        <path fill="rgb(21,132,102)" stroke="none" d="M 5965,7515 C 6221,7471 6227,7469 6333,7356 6457,7224 6654,6951 6687,6865 6699,6833 6748,6755 6796,6693 6844,6630 6883,6568 6883,6555 6883,6542 6914,6490 6952,6441 7607,5590 7747,4480 7259,4003 7203,3949 7017,3927 6981,3970 6937,4023 6645,3999 6511,3932 6281,3815 6135,3848 5767,4097 5720,4129 5673,4155 5663,4155 5638,4155 5424,4301 5406,4330 5398,4343 5311,4406 5213,4469 5115,4532 5024,4596 5010,4612 4996,4627 4930,4684 4861,4738 4793,4793 4681,4889 4613,4952 4545,5016 4446,5108 4394,5156 4251,5288 4127,5312 4201,5192 4219,5163 4271,5054 4316,4948 4361,4843 4426,4712 4461,4657 4496,4601 4532,4525 4541,4486 4551,4447 4577,4397 4600,4375 4623,4353 4718,4157 4810,3941 4902,3725 4993,3515 5013,3476 5032,3436 5047,3398 5047,3392 5047,3364 4837,3417 4719,3474 4649,3508 4583,3535 4573,3535 4415,3535 4363,3669 4427,3909 4500,4185 4499,4188 4326,4278 4096,4398 4069,4384 4061,4144 4053,3894 4035,3878 3914,4016 3784,4164 3646,4547 3689,4641 3710,4687 3709,4710 3687,4731 3638,4781 3654,4815 3782,4944 3851,5013 3906,5088 3906,5112 3906,5190 4027,5315 4191,5406 4280,5456 4364,5518 4377,5544 4397,5581 4420,5588 4491,5576 4542,5568 4603,5575 4637,5593 4687,5620 4714,5616 4833,5560 4908,5524 4987,5495 5008,5495 5101,5495 5249,5411 5287,5337 5309,5294 5368,5209 5417,5147 5466,5086 5551,4970 5604,4891 5658,4811 5717,4740 5735,4733 5753,4726 5786,4685 5808,4642 5851,4559 6118,4230 6221,4134 6322,4040 6351,4096 6257,4205 5915,4604 5865,4698 6073,4556 6441,4303 6841,4104 6888,4150 6909,4171 6898,4185 6846,4205 6807,4219 6727,4265 6667,4305 6607,4345 6551,4379 6543,4379 6530,4379 6305,4512 6175,4596 6148,4614 6094,4647 6055,4671 6016,4694 5949,4750 5906,4796 5863,4841 5798,4896 5760,4915 5723,4934 5692,4961 5692,4975 5692,4988 5653,5055 5605,5123 5472,5312 5486,5324 5754,5260 5836,5240 5976,5223 6064,5223 6153,5222 6279,5203 6344,5180 6455,5140 6464,5140 6504,5179 6578,5254 6348,5332 5986,5355 5774,5368 5320,5470 5320,5505 5320,5517 5348,5564 5382,5608 5416,5653 5444,5700 5444,5713 5444,5726 5461,5751 5483,5768 5615,5879 5784,6338 5793,6611 5804,6987 5767,7006 5707,6654 5630,6191 5512,5940 5225,5626 5159,5553 5047,5559 4853,5645 4793,5671 4725,5693 4702,5693 4592,5693 4576,5740 4601,5991 4615,6120 4635,6344 4648,6487 4668,6726 4697,6831 4790,7012 4836,7099 4794,7124 4724,7052 4590,6912 4505,6532 4488,6006 4477,5638 4483,5650 4354,5693 4266,5722 4250,5740 4213,5851 4190,5921 4144,6039 4111,6114 4059,6231 4052,6274 4066,6406 4079,6536 4075,6561 4043,6561 3962,6561 3929,6186 3998,6052 4012,6025 4038,5958 4056,5904 4073,5849 4108,5768 4134,5723 4213,5581 4195,5517 4052,5433 3982,5392 3908,5333 3888,5302 3833,5219 3794,5234 3758,5352 3741,5410 3700,5537 3667,5635 3635,5733 3609,5851 3609,5897 3609,5943 3598,5992 3584,6006 3561,6028 3503,6406 3514,6454 3531,6525 3476,6760 3442,6760 3324,6760 3484,5717 3681,5197 L 3733,5061 3652,4993 C 3571,4925 3511,4905 3511,4946 3511,4958 3460,5036 3400,5118 3339,5200 3249,5344 3198,5437 3147,5530 3063,5673 3013,5755 2962,5837 2886,6004 2842,6127 2730,6445 2722,6462 2682,6462 2644,6462 2677,6307 2783,5980 2828,5842 3145,5235 3212,5160 3236,5133 3288,5060 3327,4999 3365,4937 3428,4851 3466,4806 3551,4705 3529,4640 3376,4548 3117,4391 3079,4394 2967,4586 2932,4646 2849,4775 2784,4874 2718,4972 2643,5109 2615,5178 2588,5247 2544,5331 2517,5365 2491,5399 2469,5446 2469,5468 2469,5491 2440,5566 2406,5636 2189,6070 2195,6172 2449,6410 2541,6495 2622,6584 2630,6606 2643,6644 2777,6755 2895,6824 2921,6840 2967,6875 2997,6904 3066,6968 3236,7044 3416,7090 3492,7110 3587,7144 3628,7165 3737,7221 3912,7256 4140,7266 4250,7270 4446,7288 4576,7304 4827,7335 4921,7329 5052,7272 5097,7253 5179,7225 5233,7211 5415,7162 5672,7061 5763,7000 5813,6967 5948,6897 6064,6845 6286,6745 6453,6643 6510,6574 6558,6516 6729,6433 6779,6442 6807,6448 6764,6492 6647,6579 6552,6650 6431,6741 6378,6783 6325,6825 6197,6900 6093,6951 5988,7002 5891,7056 5876,7068 5828,7112 5538,7249 5345,7318 5243,7355 5137,7395 5109,7407 4981,7463 4806,7473 4503,7438 4332,7419 4127,7396 4049,7387 3901,7371 3842,7411 3975,7438 4585,7562 5488,7597 5965,7515 Z"/>
       </g>
      </g>
      <g class="com.sun.star.drawing.ClosedBezierShape">
       <g id="id22">
        <rect class="BoundingBox" stroke="none" fill="none" x="3715" y="5768" width="491" height="1413"/>
        <path fill="rgb(0,0,0)" stroke="none" d="M 4018,7107 C 3723,6872 3626,6297 3804,5836 3836,5753 3893,5743 3874,5823 3767,6284 3759,6408 3824,6614 3847,6687 3892,6779 3923,6817 3955,6856 3981,6897 3981,6909 3981,6947 4133,7107 4169,7107 4188,7107 4204,7124 4204,7144 4204,7204 4119,7187 4018,7107 Z"/>
       </g>
      </g>
      <g class="com.sun.star.drawing.ClosedBezierShape">
       <g id="id23">
        <rect class="BoundingBox" stroke="none" fill="none" x="4871" y="5821" width="300" height="1264"/>
        <path fill="rgb(0,0,0)" stroke="none" d="M 5048,6883 C 5048,6834 5031,6734 5011,6660 4990,6585 4957,6432 4937,6320 4918,6207 4891,6074 4877,6024 4842,5899 4969,5789 5100,5830 5163,5850 5136,5891 5061,5891 4976,5891 4972,5911 5011,6129 5089,6563 5104,6653 5114,6760 5120,6821 5136,6904 5149,6943 5195,7084 5160,7132 5087,7027 5066,6997 5048,6931 5048,6883 Z"/>
       </g>
      </g>
      <g class="com.sun.star.drawing.ClosedBezierShape">
       <g id="id24">
        <rect class="BoundingBox" stroke="none" fill="none" x="6759" y="6090" width="173" height="149"/>
        <path fill="rgb(0,0,0)" stroke="none" d="M 6759,6218 C 6759,6188 6869,6090 6903,6090 6948,6090 6939,6112 6864,6177 6793,6240 6759,6253 6759,6218 Z"/>
       </g>
      </g>
      <g class="com.sun.star.drawing.ClosedBezierShape">
       <g id="id25">
        <rect class="BoundingBox" stroke="none" fill="none" x="6957" y="5767" width="224" height="175"/>
        <path fill="rgb(0,0,0)" stroke="none" d="M 6957,5928 C 6957,5893 7096,5767 7135,5767 7160,5767 7180,5775 7180,5783 7180,5810 7075,5891 7040,5891 7022,5891 7007,5903 7007,5916 7007,5930 6996,5941 6982,5941 6968,5941 6957,5935 6957,5928 Z"/>
       </g>
      </g>
      <g class="com.sun.star.drawing.ClosedBezierShape">
       <g id="id26">
        <rect class="BoundingBox" stroke="none" fill="none" x="6921" y="5470" width="359" height="272"/>
        <path fill="rgb(0,0,0)" stroke="none" d="M 6923,5721 C 6907,5695 7193,5470 7243,5470 7327,5470 7260,5548 7068,5676 6959,5748 6943,5754 6923,5721 Z"/>
       </g>
      </g>
      <g class="com.sun.star.drawing.ClosedBezierShape">
       <g id="id27">
        <rect class="BoundingBox" stroke="none" fill="none" x="6858" y="5171" width="471" height="496"/>
        <path fill="rgb(0,0,0)" stroke="none" d="M 6858,5648 C 6858,5638 6947,5536 7056,5422 7166,5308 7255,5205 7255,5194 7255,5182 7272,5172 7292,5172 7372,5172 7320,5255 7114,5457 6910,5656 6858,5695 6858,5648 Z"/>
       </g>
      </g>
      <g class="com.sun.star.drawing.ClosedBezierShape">
       <g id="id28">
        <rect class="BoundingBox" stroke="none" fill="none" x="6908" y="4949" width="413" height="461"/>
        <path fill="rgb(0,0,0)" stroke="none" d="M 7298,4949 C 7344,4949 7331,4968 7118,5217 6965,5397 6908,5442 6908,5386 6908,5307 7228,4949 7298,4949 Z"/>
       </g>
      </g>
      <g class="com.sun.star.drawing.ClosedBezierShape">
       <g id="id29">
        <rect class="BoundingBox" stroke="none" fill="none" x="6908" y="4645" width="458" height="469"/>
        <path fill="rgb(0,0,0)" stroke="none" d="M 6908,5093 C 6908,5002 7316,4603 7362,4649 7378,4665 7322,4737 7200,4855 6923,5125 6908,5137 6908,5093 Z"/>
       </g>
      </g>
      <g class="com.sun.star.drawing.ClosedBezierShape">
       <g id="id30">
        <rect class="BoundingBox" stroke="none" fill="none" x="6883" y="4428" width="417" height="498"/>
        <path fill="rgb(0,0,0)" stroke="none" d="M 7014,4713 C 7039,4686 7090,4616 7126,4558 7189,4459 7265,4405 7297,4438 7305,4445 7273,4499 7226,4558 7180,4616 7124,4692 7102,4726 7015,4863 6883,4971 6883,4905 6883,4881 6952,4780 7014,4713 Z"/>
       </g>
      </g>
      <g class="com.sun.star.drawing.ClosedBezierShape">
       <g id="id31">
        <rect class="BoundingBox" stroke="none" fill="none" x="6883" y="4259" width="330" height="438"/>
        <path fill="rgb(0,0,0)" stroke="none" d="M 7147,4292 C 7229,4209 7234,4296 7153,4418 7019,4623 6883,4751 6883,4673 6883,4643 7079,4359 7147,4292 Z"/>
       </g>
      </g>
      <g class="com.sun.star.drawing.ClosedBezierShape">
       <g id="id32">
        <rect class="BoundingBox" stroke="none" fill="none" x="6824" y="4107" width="308" height="382"/>
        <path fill="rgb(0,0,0)" stroke="none" d="M 7096,4109 C 7148,4097 7140,4164 7082,4216 7055,4241 7032,4273 7032,4288 7030,4346 6847,4518 6825,4482 6807,4454 7050,4120 7096,4109 Z"/>
       </g>
      </g>
      <g class="com.sun.star.drawing.ClosedBezierShape">
       <g id="id33">
        <rect class="BoundingBox" stroke="none" fill="none" x="2144" y="4645" width="637" height="1236"/>
        <path fill="rgb(42,96,153)" stroke="none" d="M 2386,5402 C 2445,5276 2494,5168 2494,5161 2494,5154 2525,5101 2564,5043 2803,4684 2848,4551 2674,4716 2517,4864 2417,4937 2301,4987 2183,5039 2195,4981 2184,5519 2181,5649 2171,5783 2161,5817 L 2144,5879 2195,5820 C 2223,5788 2253,5732 2262,5696 2271,5660 2326,5528 2386,5402 Z"/>
       </g>
      </g>
      <g class="com.sun.star.drawing.ClosedBezierShape">
       <g id="id34">
        <rect class="BoundingBox" stroke="none" fill="none" x="4375" y="3511" width="1585" height="1508"/>
        <path fill="rgb(42,96,153)" stroke="none" d="M 4713,4775 C 4794,4705 4884,4628 4911,4604 5033,4497 5454,4201 5686,4058 5826,3973 5948,3891 5956,3876 5981,3836 5843,3878 5764,3934 5727,3960 5678,3982 5654,3982 5601,3982 5263,4166 5219,4220 5201,4242 5127,4297 5056,4343 4985,4388 4882,4466 4828,4515 4771,4567 4724,4593 4714,4578 4687,4533 5149,4162 5415,4015 5566,3932 5568,3925 5463,3874 5364,3827 5183,3643 5160,3566 5140,3500 5100,3493 5082,3554 5065,3613 5013,3729 4780,4230 4597,4625 4571,4674 4526,4715 4499,4739 4478,4770 4477,4785 4477,4800 4455,4840 4428,4875 4328,5003 4385,5072 4501,4963 4536,4930 4632,4846 4713,4775 Z"/>
       </g>
      </g>
      <g class="com.sun.star.drawing.ClosedBezierShape">
       <g id="id35">
        <rect class="BoundingBox" stroke="none" fill="none" x="2738" y="3000" width="1276" height="1526"/>
        <path fill="rgb(21,132,102)" stroke="none" d="M 3598,4500 C 3608,4484 3624,4437 3635,4394 3683,4199 3836,3926 3960,3810 L 4012,3761 3949,3481 C 3914,3327 3879,3155 3870,3101 L 3854,3001 3738,3002 C 3530,3005 3505,3117 3589,3672 3594,3707 3580,3723 3542,3729 3482,3737 3436,3624 3435,3470 3435,3342 2933,3385 2835,3522 2737,3659 3030,4014 3404,4210 3546,4285 3605,4354 3527,4354 3410,4354 2892,3983 2823,3850 2787,3779 2782,3777 2751,3819 2679,3918 2911,4209 3157,4329 3249,4373 3374,4436 3435,4468 3564,4535 3575,4537 3598,4500 Z"/>
       </g>
      </g>
      <g class="com.sun.star.drawing.ClosedBezierShape">
       <g id="id36">
        <rect class="BoundingBox" stroke="none" fill="none" x="3489" y="988" width="858" height="3216"/>
        <path fill="rgb(204,204,204)" stroke="none" d="M 4341,4112 C 4332,4088 4304,3929 4278,3758 4187,3156 4046,2441 3980,2245 3954,2170 3893,1975 3843,1811 3793,1648 3726,1447 3695,1365 3663,1283 3630,1176 3621,1128 3596,993 3572,964 3521,1006 3463,1054 3486,1260 3587,1601 3629,1744 3686,1945 3712,2047 3739,2149 3770,2255 3782,2283 3793,2310 3809,2353 3818,2378 3854,2492 4053,3477 4081,3684 4122,3992 4160,4168 4188,4186 4224,4209 4214,4209 4292,4180 4340,4161 4354,4143 4341,4112 Z"/>
       </g>
      </g>
      <g class="com.sun.star.drawing.ClosedBezierShape">
       <g id="id37">
        <rect class="BoundingBox" stroke="none" fill="none" x="5396" y="1285" width="2133" height="2620"/>
        <path fill="rgb(255,245,206)" stroke="none" d="M 6744,3886 C 6751,3875 6735,3805 6708,3731 6650,3573 6647,3510 6695,3510 6719,3510 6737,3549 6748,3623 6767,3749 6851,3890 6915,3903 6974,3914 6971,3795 6908,3647 6811,3422 6854,3366 6970,3565 7059,3718 7115,3752 7081,3632 7068,3588 7035,3528 7007,3499 6960,3448 6940,3386 6971,3386 7027,3386 7095,3463 7174,3617 L 7267,3796 7275,3692 C 7280,3623 7265,3554 7229,3484 7167,3362 7199,3285 7264,3403 7310,3487 7366,3606 7387,3665 7405,3718 7528,3675 7528,3617 7528,3598 7518,3588 7506,3596 7475,3615 7435,3561 7416,3473 7407,3432 7376,3343 7348,3275 7310,3184 7295,3087 7290,2915 7285,2700 7299,2597 7375,2271 7406,2137 7414,2146 7284,2170 7133,2198 7112,2226 7163,2333 7222,2457 7217,2479 7111,2549 6902,2688 6571,2656 6590,2500 6600,2413 6654,2400 6674,2479 6692,2551 6780,2563 6967,2520 7124,2483 7141,2451 7085,2293 6914,1810 6896,1619 7009,1490 7099,1388 7155,1396 7078,1500 7019,1581 6983,1799 7029,1799 7045,1799 7104,1776 7159,1747 7313,1669 7443,1728 7379,1848 7356,1892 7411,1974 7442,1942 7508,1877 7427,1433 7337,1360 7168,1224 6565,1282 6303,1461 6250,1497 6197,1526 6186,1526 6155,1526 5959,1664 5906,1723 5832,1804 5880,1813 6008,1743 6150,1667 6488,1551 6570,1551 6652,1551 6672,1587 6709,1799 6726,1901 6756,2028 6774,2081 6814,2193 6816,2221 6787,2221 6752,2221 6691,2067 6648,1869 6586,1586 6565,1582 6114,1775 6012,1818 5901,1856 5867,1858 5802,1861 5644,2067 5644,2148 5644,2170 5617,2212 5585,2242 5553,2272 5506,2360 5481,2438 5456,2516 5422,2597 5405,2618 5379,2651 5426,3201 5458,3234 5499,3275 5521,3189 5506,3049 5495,2947 5498,2890 5514,2890 5547,2890 5594,3025 5595,3123 5596,3229 5680,3407 5702,3349 5711,3326 5710,3295 5699,3279 5667,3229 5626,2913 5650,2899 5694,2872 5718,2932 5742,3123 5777,3396 5815,3510 5871,3510 5927,3510 5930,3444 5879,3277 5833,3125 5833,3089 5877,3089 5901,3089 5922,3137 5941,3231 5997,3522 6143,3781 6102,3518 6066,3283 6066,3213 6102,3213 6127,3213 6139,3239 6140,3293 6141,3403 6202,3654 6239,3698 6319,3794 6332,3714 6273,3485 6252,3401 6240,3327 6247,3320 6277,3290 6311,3347 6337,3471 6362,3593 6499,3853 6524,3827 6531,3821 6511,3736 6482,3638 6453,3540 6435,3454 6443,3446 6474,3415 6507,3465 6536,3585 6552,3653 6576,3715 6588,3723 6601,3730 6610,3755 6610,3777 6610,3852 6713,3936 6744,3886 Z"/>
       </g>
      </g>
      <g class="com.sun.star.drawing.ClosedBezierShape">
       <g id="id38">
        <rect class="BoundingBox" stroke="none" fill="none" x="6392" y="2748" width="831" height="440"/>
        <path fill="rgb(0,0,0)" stroke="none" d="M 6802,3171 C 6739,3154 6764,3102 6836,3099 6922,3097 7082,3020 7082,2981 7082,2955 7057,2953 6964,2971 6900,2984 6779,3000 6697,3006 6564,3017 6543,3026 6506,3091 6437,3212 6352,3179 6416,3056 6481,2928 6567,2866 6676,2866 6733,2866 6833,2843 6896,2816 7067,2743 7195,2727 7214,2776 7236,2833 7208,2891 7147,2916 7095,2937 7095,2937 7150,2938 7212,2940 7222,2983 7175,3046 7152,3078 6862,3201 6849,3185 6848,3184 6826,3177 6802,3171 Z"/>
       </g>
      </g>
      <g class="com.sun.star.drawing.ClosedBezierShape">
       <g id="id39">
        <rect class="BoundingBox" stroke="none" fill="none" x="5775" y="2494" width="118" height="272"/>
        <path fill="rgb(0,0,0)" stroke="none" d="M 5796,2494 C 5828,2494 5892,2649 5892,2729 5892,2780 5849,2776 5820,2722 5774,2637 5759,2494 5796,2494 Z"/>
       </g>
      </g>
      <g class="com.sun.star.drawing.ClosedBezierShape">
       <g id="id40">
        <rect class="BoundingBox" stroke="none" fill="none" x="5901" y="1944" width="604" height="603"/>
        <path fill="rgb(0,0,0)" stroke="none" d="M 5923,2450 C 5871,2248 5902,2181 6097,2067 6356,1916 6559,1903 6489,2041 6477,2065 6457,2117 6445,2158 6429,2211 6403,2236 6349,2249 6308,2259 6226,2279 6167,2294 6107,2309 6038,2315 6012,2307 5959,2290 5959,2291 5988,2438 6014,2574 5957,2585 5923,2450 Z"/>
       </g>
      </g>
      <g class="com.sun.star.drawing.ClosedBezierShape">
       <g id="id41">
        <rect class="BoundingBox" stroke="none" fill="none" x="6015" y="2125" width="266" height="121"/>
        <path fill="rgb(114,159,207)" stroke="none" d="M 6197,2219 C 6304,2189 6308,2138 6204,2126 6135,2118 6016,2178 6016,2221 6016,2253 6079,2252 6197,2219 Z"/>
       </g>
      </g>
      <g class="com.sun.star.drawing.ClosedBezierShape">
       <g id="id42">
        <rect class="BoundingBox" stroke="none" fill="none" x="6784" y="2271" width="75" height="175"/>
        <path fill="rgb(0,0,0)" stroke="none" d="M 6784,2357 C 6784,2267 6817,2241 6843,2310 6870,2379 6859,2444 6821,2444 6795,2444 6784,2418 6784,2357 Z"/>
       </g>
      </g>
      <g class="com.sun.star.drawing.ClosedBezierShape">
       <g id="id43">
        <rect class="BoundingBox" stroke="none" fill="none" x="5941" y="1748" width="469" height="250"/>
        <path fill="rgb(0,0,0)" stroke="none" d="M 5941,1961 C 5941,1915 6263,1749 6352,1749 6452,1749 6412,1806 6287,1842 6153,1881 6023,1941 6003,1973 5980,2010 5941,2002 5941,1961 Z"/>
       </g>
      </g>
      <g class="com.sun.star.drawing.ClosedBezierShape">
       <g id="id44">
        <rect class="BoundingBox" stroke="none" fill="none" x="4954" y="2846" width="1150" height="1001"/>
        <path fill="rgb(255,245,206)" stroke="none" d="M 6101,3729 C 6120,3710 5862,3584 5805,3584 5783,3584 5759,3568 5751,3548 5735,3507 5591,3412 5483,3372 5394,3339 5325,3167 5322,2970 5320,2806 5295,2806 5220,2967 5185,3042 5109,3139 5036,3202 4914,3309 4935,3370 5061,3275 5130,3223 5171,3228 5171,3290 5171,3503 5367,3769 5568,3828 5663,3856 5676,3855 5920,3789 6011,3765 6092,3738 6101,3729 Z"/>
       </g>
      </g>
      <g class="com.sun.star.drawing.ClosedBezierShape">
       <g id="id45">
        <rect class="BoundingBox" stroke="none" fill="none" x="4098" y="2290" width="732" height="1235"/>
        <path fill="rgb(204,204,204)" stroke="none" d="M 4477,3509 C 4509,3487 4506,3478 4458,3444 4360,3375 4441,3243 4640,3149 4878,3036 4890,2988 4679,2994 4380,3002 4245,2843 4250,2489 L 4252,2290 4185,2307 C 4083,2332 4079,2346 4129,2494 4154,2569 4187,2717 4202,2824 4217,2930 4240,3038 4254,3064 4267,3089 4278,3139 4278,3174 4278,3403 4380,3575 4477,3509 Z"/>
       </g>
      </g>
      <g class="com.sun.star.drawing.ClosedBezierShape">
       <g id="id46">
        <rect class="BoundingBox" stroke="none" fill="none" x="2748" y="2667" width="775" height="723"/>
        <path fill="rgb(204,204,204)" stroke="none" d="M 3093,3337 C 3179,3310 3280,3288 3317,3288 3393,3287 3402,3276 3479,3089 3526,2974 3531,2939 3508,2870 3463,2735 3395,2811 3389,3004 3385,3117 3308,3175 3154,3180 3084,3182 2997,3191 2961,3201 2866,3225 2837,3154 2836,2888 2836,2718 2828,2667 2801,2667 2735,2667 2732,2754 2783,3244 2800,3412 2827,3421 3093,3337 Z"/>
       </g>
      </g>
      <g class="com.sun.star.drawing.ClosedBezierShape">
       <g id="id47">
        <rect class="BoundingBox" stroke="none" fill="none" x="4526" y="1092" width="3030" height="2294"/>
        <path fill="rgb(191,0,65)" stroke="none" d="M 5277,2692 C 5511,2209 5583,2064 5648,1940 5728,1792 5927,1551 5971,1551 5984,1551 6028,1528 6068,1499 6510,1185 7232,1084 7445,1307 7588,1456 7593,1361 7451,1204 L 7350,1092 7111,1096 C 6778,1102 6562,1128 6477,1172 6437,1192 6331,1239 6240,1276 5951,1393 5760,1539 5686,1698 5650,1774 5582,1903 5533,1985 5485,2067 5439,2151 5431,2171 5378,2311 5259,2524 5166,2645 5129,2694 5098,2748 5098,2765 5098,2930 4777,3238 4606,3238 4577,3238 4527,3315 4527,3360 4527,3404 4574,3391 4747,3297 4999,3160 5113,3029 5277,2692 Z"/>
       </g>
      </g>
      <g class="com.sun.star.drawing.ClosedBezierShape">
       <g id="id48">
        <rect class="BoundingBox" stroke="none" fill="none" x="2928" y="2498" width="167" height="616"/>
        <path fill="rgb(255,245,206)" stroke="none" d="M 3050,3099 C 3101,3079 3110,2483 3058,2499 2980,2525 2915,2724 2930,2888 2951,3117 2960,3133 3050,3099 Z"/>
       </g>
      </g>
      <g class="com.sun.star.drawing.ClosedBezierShape">
       <g id="id49">
        <rect class="BoundingBox" stroke="none" fill="none" x="3189" y="2345" width="295" height="743"/>
        <path fill="rgb(255,245,206)" stroke="none" d="M 3395,2559 C 3399,2480 3416,2427 3444,2407 3510,2359 3494,2345 3376,2345 3195,2345 3180,2376 3193,2730 3210,3159 3258,3200 3343,2859 3368,2760 3391,2625 3395,2559 Z"/>
       </g>
      </g>
      <g class="com.sun.star.drawing.ClosedBezierShape">
       <g id="id50">
        <rect class="BoundingBox" stroke="none" fill="none" x="2544" y="2768" width="93" height="172"/>
        <path fill="rgb(255,245,206)" stroke="none" d="M 2629,2859 C 2608,2763 2604,2757 2570,2778 2534,2800 2536,2873 2573,2910 2625,2962 2647,2942 2629,2859 Z"/>
       </g>
      </g>
      <g class="com.sun.star.drawing.ClosedBezierShape">
       <g id="id51">
        <rect class="BoundingBox" stroke="none" fill="none" x="3511" y="2534" width="339" height="383"/>
        <path fill="rgb(255,245,206)" stroke="none" d="M 3807,2745 C 3783,2644 3778,2639 3622,2556 3419,2449 3523,2769 3731,2890 3801,2931 3865,2921 3845,2872 3835,2848 3818,2791 3807,2745 Z"/>
       </g>
      </g>
      <g class="com.sun.star.drawing.ClosedBezierShape">
       <g id="id52">
        <rect class="BoundingBox" stroke="none" fill="none" x="4347" y="1937" width="901" height="1007"/>
        <path fill="rgb(191,0,65)" stroke="none" d="M 5061,2667 C 5085,2619 5128,2547 5157,2506 5239,2390 5273,2276 5224,2280 5197,2282 5182,2257 5177,2196 5143,1827 4565,1864 4396,2245 4200,2689 4634,3159 4941,2835 4984,2790 5037,2715 5061,2667 Z"/>
       </g>
      </g>
      <g class="com.sun.star.drawing.ClosedBezierShape">
       <g id="id53">
        <rect class="BoundingBox" stroke="none" fill="none" x="4577" y="2255" width="422" height="464"/>
        <path fill="rgb(0,0,0)" stroke="none" d="M 4841,2262 C 4975,2309 5045,2473 4962,2542 4915,2581 4874,2555 4873,2486 4871,2374 4772,2308 4705,2374 4640,2441 4702,2642 4788,2642 4808,2642 4824,2659 4824,2680 4824,2734 4669,2728 4618,2671 4495,2535 4675,2203 4841,2262 Z"/>
       </g>
      </g>
      <g class="com.sun.star.drawing.ClosedBezierShape">
       <g id="id54">
        <rect class="BoundingBox" stroke="none" fill="none" x="3556" y="2369" width="194" height="148"/>
        <path fill="rgb(255,245,206)" stroke="none" d="M 3574,2369 C 3533,2369 3571,2426 3641,2469 3738,2528 3762,2531 3742,2480 3730,2447 3612,2369 3574,2369 Z"/>
       </g>
      </g>
      <g class="com.sun.star.drawing.ClosedBezierShape">
       <g id="id55">
        <rect class="BoundingBox" stroke="none" fill="none" x="5146" y="326" width="1483" height="1822"/>
        <path fill="rgb(191,0,65)" stroke="none" d="M 5817,1423 C 6026,1258 6038,1251 6326,1144 6422,1109 6531,1080 6568,1080 6658,1080 6660,1084 6474,861 6293,645 6265,627 5817,466 5301,280 5270,280 5445,459 5629,649 5631,732 5453,951 L 5347,1083 5351,1299 C 5356,1562 5309,1755 5215,1856 L 5146,1930 5196,1984 C 5224,2014 5247,2055 5247,2076 5247,2115 5269,2146 5297,2146 5306,2146 5367,2054 5433,1942 5639,1587 5678,1534 5817,1423 Z"/>
       </g>
      </g>
      <g class="com.sun.star.drawing.ClosedBezierShape">
       <g id="id56">
        <rect class="BoundingBox" stroke="none" fill="none" x="5414" y="818" width="727" height="758"/>
        <path fill="rgb(0,0,0)" stroke="none" d="M 6124,846 C 6155,927 6138,982 6076,1005 6018,1028 5898,1134 5579,1446 5451,1571 5423,1591 5416,1563 5368,1368 6056,670 6124,846 Z"/>
       </g>
      </g>
      <g class="com.sun.star.drawing.ClosedBezierShape">
       <g id="id57">
        <rect class="BoundingBox" stroke="none" fill="none" x="7056" y="1971" width="196" height="161"/>
        <path fill="rgb(255,245,206)" stroke="none" d="M 7241,2005 C 7210,1974 7056,1958 7056,1987 7056,2013 7113,2109 7139,2126 7185,2155 7280,2043 7241,2005 Z"/>
       </g>
      </g>
      <g class="com.sun.star.drawing.ClosedBezierShape">
       <g id="id58">
        <rect class="BoundingBox" stroke="none" fill="none" x="4223" y="373" width="1233" height="1738"/>
        <path fill="rgb(191,0,65)" stroke="none" d="M 4354,2070 C 4354,1982 4844,1805 4985,1843 5223,1907 5329,1417 5138,1133 5048,999 5058,943 5166,972 5355,1021 5530,744 5421,566 5128,86 4388,562 4250,1319 4213,1525 4214,1967 4252,2005 4267,2020 4279,2052 4279,2076 4279,2105 4292,2115 4317,2106 4337,2098 4354,2082 4354,2070 Z"/>
       </g>
      </g>
      <g class="com.sun.star.drawing.ClosedBezierShape">
       <g id="id59">
        <rect class="BoundingBox" stroke="none" fill="none" x="7509" y="387" width="4752" height="1635"/>
        <path fill="rgb(204,204,204)" stroke="none" d="M 8631,1688 C 8713,1665 8824,1626 8879,1599 8933,1573 9028,1538 9090,1523 9151,1508 9241,1476 9289,1451 9336,1426 9418,1400 9470,1393 9604,1375 10138,1220 10938,967 11034,937 11173,898 11248,882 11323,865 11432,831 11490,805 11548,779 11610,757 11627,757 11645,757 11671,748 11683,737 11696,726 11767,702 11843,685 11918,667 12005,637 12035,618 12065,599 12106,584 12126,584 12166,584 12280,416 12256,392 12233,370 11993,429 11666,537 11507,590 11353,633 11325,633 11296,633 11165,668 11032,711 10899,753 10690,813 10567,844 10444,875 10262,930 10164,965 10065,1001 9955,1030 9920,1030 9856,1030 9173,1229 9028,1290 8987,1307 8898,1335 8830,1352 8762,1369 8633,1403 8545,1429 8456,1454 8333,1488 8272,1502 8211,1517 8127,1540 8086,1554 7907,1612 7645,1675 7607,1669 7572,1663 7566,1680 7572,1770 7577,1849 7567,1887 7537,1909 7489,1944 7506,2021 7562,2021 7582,2021 7797,1955 8041,1875 8284,1795 8550,1710 8631,1688 Z"/>
       </g>
      </g>
      <g class="com.sun.star.drawing.ClosedBezierShape">
       <g id="id60">
        <rect class="BoundingBox" stroke="none" fill="none" x="7087" y="1810" width="217" height="90"/>
        <path fill="rgb(114,159,207)" stroke="none" d="M 7280,1874 C 7307,1857 7310,1843 7290,1823 7257,1790 7103,1824 7088,1868 7076,1905 7225,1909 7280,1874 Z"/>
       </g>
      </g>
      <g class="com.sun.star.drawing.ClosedBezierShape">
       <g id="id61">
        <rect class="BoundingBox" stroke="none" fill="none" x="7503" y="215" width="4677" height="1408"/>
        <path fill="rgb(204,204,204)" stroke="none" d="M 7747,1561 C 7865,1526 8001,1483 8049,1465 8096,1448 8186,1421 8247,1405 8682,1295 8957,1215 9314,1097 9539,1022 9790,947 9872,931 9953,914 10093,882 10182,857 10270,832 10449,783 10578,748 10708,712 10915,654 11037,618 11160,583 11300,545 11347,534 11395,524 11535,485 11657,447 11780,410 11948,360 12029,336 12206,285 12229,228 12079,216 11980,207 11684,261 11471,326 11410,345 11309,370 11248,382 11186,394 11008,438 10851,479 10694,520 10431,583 10268,620 10104,657 9904,708 9822,734 9522,830 9332,881 9282,881 9253,881 9196,892 9154,904 9112,917 8966,957 8830,993 8693,1028 8548,1067 8507,1078 8307,1132 8215,1154 7977,1207 7690,1270 7642,1300 7664,1402 7681,1480 7627,1551 7551,1551 7524,1551 7503,1568 7503,1588 7503,1636 7495,1637 7747,1561 Z"/>
       </g>
      </g>
      <g class="com.sun.star.drawing.ClosedBezierShape">
       <g id="id62">
        <rect class="BoundingBox" stroke="none" fill="none" x="5380" y="141" width="1997" height="891"/>
        <path fill="rgb(191,0,65)" stroke="none" d="M 7032,793 C 6817,779 6761,767 6715,724 L 6658,673 6739,629 C 6789,603 6877,585 6963,585 7202,583 7140,495 6759,291 6468,136 6153,107 5512,176 5308,198 5333,220 5649,297 6079,402 6395,573 6534,777 6568,828 6622,905 6654,950 L 6712,1030 7039,1018 C 7326,1006 7367,1000 7373,962 7389,851 7307,810 7032,793 Z"/>
       </g>
      </g>
     </g>
    </g>
   </g>
  </g>
 </g>
</svg>