<?xml version="1.0" encoding="UTF-8"?>
<!DOCTYPE svg PUBLIC "-//W3C//DTD SVG 1.1//EN" "http://www.w3.org/Graphics/SVG/1.1/DTD/svg11.dtd">
<svg version="1.2" width="177mm" height="127mm" viewBox="0 0 17700 12700" preserveAspectRatio="xMidYMid" fill-rule="evenodd" stroke-width="28.222" stroke-linejoin="round" xmlns="http://www.w3.org/2000/svg" xmlns:ooo="http://xml.openoffice.org/svg/export" xmlns:xlink="http://www.w3.org/1999/xlink" xmlns:presentation="http://sun.com/xmlns/staroffice/presentation" xmlns:smil="http://www.w3.org/2001/SMIL20/" xmlns:anim="urn:oasis:names:tc:opendocument:xmlns:animation:1.0" xml:space="preserve">
 <defs class="ClipPathGroup">
  <clipPath id="presentation_clip_path" clipPathUnits="userSpaceOnUse">
   <rect x="0" y="0" width="17700" height="12700"/>
  </clipPath>
  <clipPath id="presentation_clip_path_shrink" clipPathUnits="userSpaceOnUse">
   <rect x="17" y="12" width="17665" height="12675"/>
  </clipPath>
 </defs>
 <defs class="TextShapeIndex">
  <g ooo:slide="id1" ooo:id-list="id3 id4 id5 id6 id7 id8 id9 id10 id11 id12 id13 id14 id15 id16 id17 id18 id19 id20 id21 id22 id23 id24 id25 id26 id27 id28 id29 id30 id31 id32 id33"/>
 </defs>
 <defs class="EmbeddedBulletChars">
  <g id="bullet-char-template-57356" transform="scale(0.00048828125,-0.00048828125)">
   <path d="M 580,1141 L 1163,571 580,0 -4,571 580,1141 Z"/>
  </g>
  <g id="bullet-char-template-57354" transform="scale(0.00048828125,-0.00048828125)">
   <path d="M 8,1128 L 1137,1128 1137,0 8,0 8,1128 Z"/>
  </g>
  <g id="bullet-char-template-10146" transform="scale(0.00048828125,-0.00048828125)">
   <path d="M 174,0 L 602,739 174,1481 1456,739 174,0 Z M 1358,739 L 309,1346 659,739 1358,739 Z"/>
  </g>
  <g id="bullet-char-template-10132" transform="scale(0.00048828125,-0.00048828125)">
   <path d="M 2015,739 L 1276,0 717,0 1260,543 174,543 174,936 1260,936 717,1481 1274,1481 2015,739 Z"/>
  </g>
  <g id="bullet-char-template-10007" transform="scale(0.00048828125,-0.00048828125)">
   <path d="M 0,-2 C -7,14 -16,27 -25,37 L 356,567 C 262,823 215,952 215,954 215,979 228,992 255,992 264,992 276,990 289,987 310,991 331,999 354,1012 L 381,999 492,748 772,1049 836,1024 860,1049 C 881,1039 901,1025 922,1006 886,937 835,863 770,784 769,783 710,716 594,584 L 774,223 C 774,196 753,168 711,139 L 727,119 C 717,90 699,76 672,76 641,76 570,178 457,381 L 164,-76 C 142,-110 111,-127 72,-127 30,-127 9,-110 8,-76 1,-67 -2,-52 -2,-32 -2,-23 -1,-13 0,-2 Z"/>
  </g>
  <g id="bullet-char-template-10004" transform="scale(0.00048828125,-0.00048828125)">
   <path d="M 285,-33 C 182,-33 111,30 74,156 52,228 41,333 41,471 41,549 55,616 82,672 116,743 169,778 240,778 293,778 328,747 346,684 L 369,508 C 377,444 397,411 428,410 L 1163,1116 C 1174,1127 1196,1133 1229,1133 1271,1133 1292,1118 1292,1087 L 1292,965 C 1292,929 1282,901 1262,881 L 442,47 C 390,-6 338,-33 285,-33 Z"/>
  </g>
  <g id="bullet-char-template-9679" transform="scale(0.00048828125,-0.00048828125)">
   <path d="M 813,0 C 632,0 489,54 383,161 276,268 223,411 223,592 223,773 276,916 383,1023 489,1130 632,1184 813,1184 992,1184 1136,1130 1245,1023 1353,916 1407,772 1407,592 1407,412 1353,268 1245,161 1136,54 992,0 813,0 Z"/>
  </g>
  <g id="bullet-char-template-8226" transform="scale(0.00048828125,-0.00048828125)">
   <path d="M 346,457 C 273,457 209,483 155,535 101,586 74,649 74,723 74,796 101,859 155,911 209,963 273,989 346,989 419,989 480,963 531,910 582,859 608,796 608,723 608,648 583,586 532,535 482,483 420,457 346,457 Z"/>
  </g>
  <g id="bullet-char-template-8211" transform="scale(0.00048828125,-0.00048828125)">
   <path d="M -4,459 L 1135,459 1135,606 -4,606 -4,459 Z"/>
  </g>
  <g id="bullet-char-template-61548" transform="scale(0.00048828125,-0.00048828125)">
   <path d="M 173,740 C 173,903 231,1043 346,1159 462,1274 601,1332 765,1332 928,1332 1067,1274 1183,1159 1299,1043 1357,903 1357,740 1357,577 1299,437 1183,322 1067,206 928,148 765,148 601,148 462,206 346,322 231,437 173,577 173,740 Z"/>
  </g>
 </defs>
 <g>
  <g id="id2" class="Master_Slide">
   <g id="bg-id2" class="Background"/>
   <g id="bo-id2" class="BackgroundObjects"/>
  </g>
 </g>
 <g class="SlideGroup">
  <g>
   <g id="container-id1">
    <g id="id1" class="Slide" clip-path="url(#presentation_clip_path)">
     <g class="Page">
      <g class="com.sun.star.drawing.ClosedBezierShape">
       <g id="id3">
        <rect class="BoundingBox" stroke="none" fill="none" x="5109" y="7312" width="2481" height="3940"/>
        <path fill="rgb(232,162,2)" stroke="none" d="M 5265,8078 C 5265,8078 5617,8344 5745,8649 5908,9037 6164,9743 6114,10048 6081,10255 5990,10786 6047,10987 6088,11132 6295,11198 6295,11198 6392,11205 6533,11180 6612,11200 6612,11200 6990,11243 7076,11198 7076,11198 7300,11273 7409,11244 7468,11228 7533,11191 7560,11131 7611,11020 7585,10876 7550,10758 7501,10588 7311,10378 7200,10239 7200,10239 7110,10161 7095,10107 7020,9843 7143,9313 7147,9038 7152,8647 7058,8365 7082,7975 7091,7815 7185,7508 7185,7508 L 7274,7312 5382,7595 5109,7924 5265,8078 Z"/>
       </g>
      </g>
      <g class="com.sun.star.drawing.ClosedBezierShape">
       <g id="id4">
        <rect class="BoundingBox" stroke="none" fill="none" x="5109" y="7312" width="2481" height="3940"/>
        <path fill="rgb(184,92,0)" stroke="none" d="M 7082,7975 C 7091,7815 7185,7508 7185,7508 L 7274,7312 5382,7595 5109,7924 5265,8078 C 5265,8078 5617,8344 5745,8649 5908,9037 6164,9743 6114,10048 6081,10255 5990,10786 6047,10987 6088,11132 6295,11198 6295,11198 6392,11205 6533,11180 6612,11200 6612,11200 6990,11243 7076,11198 7076,11198 7300,11273 7409,11244 7468,11228 7533,11191 7560,11131 7611,11020 7585,10876 7550,10758 7501,10588 7311,10378 7200,10239 7200,10239 7110,10161 7095,10107 7020,9843 7143,9313 7147,9038 7151,8717 7088,8468 7079,8173 L 7082,7975 Z M 6947,8208 C 6954,8513 7041,8813 7038,9118 7036,9412 6925,9701 6936,9995 6939,10076 6945,10162 6981,10234 7064,10396 7254,10482 7357,10632 7402,10698 7460,10849 7460,10849 7460,10849 7380,10795 7334,10792 7267,10787 7141,10849 7141,10849 7051,10755 7036,10613 6777,10632 L 6902,10883 C 6902,10883 6704,10804 6606,10826 6537,10841 6435,10951 6435,10951 6435,10951 6384,10895 6378,10860 6363,10772 6388,10674 6435,10598 6532,10440 6875,10299 6875,10299 6792,10269 6733,10234 6553,10223 L 6720,9961 6515,9949 6697,9460 6549,9460 6685,9266 6560,9266 C 6677,9028 6783,8914 6890,8788 L 6720,8674 6879,8617 6663,8515 6868,8378 C 6675,8310 6540,8242 6469,8173 6665,8155 6827,8114 6956,8051 6956,8051 6946,8155 6947,8208 Z"/>
       </g>
      </g>
      <g class="com.sun.star.drawing.ClosedBezierShape">
       <g id="id5">
        <rect class="BoundingBox" stroke="none" fill="none" x="5109" y="7312" width="2466" height="3936"/>
        <path fill="rgb(123,61,0)" stroke="none" d="M 7274,7312 L 7185,7508 C 7185,7508 7155,7489 7140,7672 6914,7929 6349,8123 6174,8100 6277,8189 6413,8298 6722,8386 6592,8453 6399,8445 5964,8303 6169,8437 6321,8599 6744,8615 6466,8741 6187,8633 5909,8584 6162,8826 6487,8800 6798,8825 6526,8974 6367,8841 6149,8983 6313,9071 6558,8977 6582,8988 6498,9093 6363,9078 6261,9351 6356,9253 6451,9188 6548,9162 6458,9250 6368,9336 6303,9475 6421,9381 6483,9373 6549,9360 6449,9477 6353,9611 6277,9837 6388,9703 6501,9600 6618,9565 6509,9698 6423,9763 6371,10129 6449,10038 6577,10049 6630,10025 6528,10141 6372,10221 6344,10407 6417,10299 6713,10268 6745,10322 6591,10348 6173,10565 6238,10853 6259,10945 6288,11008 6300,11027 6355,11112 6312,11148 6295,11198 6295,11198 6088,11132 6047,10987 5990,10786 6081,10255 6115,10048 6164,9743 5908,9037 5745,8649 5617,8344 5265,8078 5265,8078 L 5109,7924 5382,7595 7274,7312 Z M 6879,10701 C 7011,10704 7069,10850 7096,10989 7149,10939 7229,10911 7307,10912 7325,10912 7342,10914 7359,10917 7410,10928 7465,10959 7503,10996 7540,11032 7573,11116 7573,11116 L 7544,11163 7453,11226 7343,11247 7228,11236 7049,11192 7047,11213 6943,11209 6802,11214 6658,11210 6499,11184 C 6499,11184 6486,11113 6496,11083 6527,10989 6629,10927 6763,10928 6782,10929 6801,10930 6819,10933 6877,10942 6937,10971 6979,11003 6989,11012 7000,11023 7009,11035 7005,10890 6970,10765 6879,10701 Z M 7314,11014 C 7270,11013 7219,11025 7181,11048 7160,11061 7140,11084 7144,11108 7151,11147 7193,11157 7236,11168 7286,11182 7363,11188 7414,11176 7447,11168 7483,11166 7489,11132 7495,11105 7476,11074 7453,11059 7412,11032 7363,11016 7314,11014 Z M 6770,11020 C 6721,11019 6722,11030 6680,11050 6657,11061 6635,11082 6640,11104 6647,11138 6693,11147 6741,11157 6797,11170 6824,11175 6880,11165 6917,11157 6957,11155 6964,11125 6970,11101 6949,11073 6924,11059 6879,11036 6824,11021 6770,11020 Z"/>
       </g>
      </g>
      <g class="com.sun.star.drawing.ClosedBezierShape">
       <g id="id6">
        <rect class="BoundingBox" stroke="none" fill="none" x="5083" y="7288" width="2526" height="3983"/>
        <path fill="none" stroke="rgb(89,77,77)" stroke-width="37" stroke-linejoin="miter" d="M 5265,8078 C 5265,8078 5617,8344 5745,8649 5908,9037 6164,9743 6114,10048 6081,10255 5990,10786 6047,10987 6088,11132 6295,11198 6295,11198 6392,11205 6533,11180 6612,11200 6612,11200 6990,11243 7076,11198 7076,11198 7300,11273 7409,11244 7468,11228 7533,11191 7560,11131 7611,11020 7585,10876 7550,10758 7501,10588 7311,10378 7200,10239 7200,10239 7110,10161 7095,10107 7020,9843 7143,9313 7147,9038 7152,8647 7058,8365 7082,7975 7091,7815 7185,7508 7185,7508 L 7274,7312 5382,7595 5109,7924 5265,8078 Z"/>
       </g>
      </g>
      <g class="com.sun.star.drawing.ClosedBezierShape">
       <g id="id7">
        <rect class="BoundingBox" stroke="none" fill="none" x="10302" y="5591" width="2189" height="5662"/>
        <path fill="rgb(232,162,2)" stroke="none" d="M 11405,5784 C 11405,5784 11522,6163 11577,6375 11673,6749 11771,7347 11824,7729 11929,8485 11803,9494 11972,10024 12007,10135 12061,10199 12114,10240 12165,10280 12205,10416 12256,10480 12345,10592 12368,10716 12399,10823 12434,10941 12525,11021 12474,11132 12446,11192 12382,11229 12323,11245 12214,11274 11990,11199 11990,11199 11903,11244 11525,11201 11525,11201 11447,11181 11305,11206 11208,11199 11208,11199 11002,11133 10961,10988 10904,10787 11067,10255 11028,10049 11028,10049 10964,9632 10910,9428 10817,9076 10555,8396 10555,8396 L 10303,7821 11310,5591 11405,5784 Z"/>
       </g>
      </g>
      <g class="com.sun.star.drawing.ClosedBezierShape">
       <g id="id8">
        <rect class="BoundingBox" stroke="none" fill="none" x="10302" y="5591" width="2189" height="5662"/>
        <path fill="rgb(184,92,0)" stroke="none" d="M 11480,6719 C 11480,6719 11559,7038 11536,7197 11523,7292 11481,7385 11423,7462 11390,7505 11297,7563 11297,7563 L 11423,7563 11284,7790 11436,7790 C 11476,7890 11454,7991 11436,8092 11436,8092 11504,8094 11536,8105 11592,8123 11688,8193 11688,8193 L 11486,8281 11599,8319 11398,8672 11473,8684 11360,8924 11486,8937 11410,9126 11486,9126 11410,9365 11524,9352 11385,9718 11486,9718 11398,9970 11536,9970 11511,10172 11662,10197 C 11662,10197 11423,10426 11360,10575 11307,10700 11310,10978 11310,10978 11310,10978 11347,10890 11385,10865 11439,10829 11510,10832 11574,10827 11654,10821 11814,10840 11814,10840 L 11700,10651 C 11922,10635 11948,10620 12066,10840 12066,10840 12124,10825 12154,10827 12211,10832 12318,10878 12318,10878 12318,10878 12297,10755 12267,10701 12237,10647 12177,10614 12141,10562 12088,10485 12063,10392 12015,10310 11962,10219 11875,10146 11839,10046 11769,9851 11789,9635 11776,9428 11742,8887 11790,8342 11738,7802 11700,7407 11536,6630 11536,6630 L 11480,6719 Z M 11619,6553 C 11701,6920 11778,7403 11824,7729 11929,8485 11803,9494 11972,10024 12007,10135 12061,10199 12114,10240 12165,10280 12205,10416 12256,10480 12345,10592 12368,10716 12399,10823 12434,10941 12525,11021 12474,11132 12446,11192 12382,11229 12323,11245 12214,11274 11990,11199 11990,11199 11903,11244 11525,11201 11525,11201 11447,11181 11305,11206 11208,11199 11208,11199 11002,11133 10961,10988 10904,10787 11067,10255 11028,10049 11028,10049 10964,9632 10910,9428 10817,9076 10555,8396 10555,8396 L 10303,7821 11310,5591 11405,5784 C 11405,5784 11522,6163 11577,6375 L 11619,6553 Z"/>
       </g>
      </g>
      <g class="com.sun.star.drawing.ClosedBezierShape">
       <g id="id9">
        <rect class="BoundingBox" stroke="none" fill="none" x="10303" y="5591" width="1328" height="5609"/>
        <path fill="rgb(123,61,0)" stroke="none" d="M 11405,5784 L 11310,5591 10303,7821 10555,8396 C 10555,8396 10817,9076 10910,9428 10964,9632 11028,10049 11028,10049 11067,10255 10904,10787 10961,10988 11002,11133 11208,11199 11208,11199 11113,10851 11268,10427 11565,10230 11477,10233 11392,10271 11293,10404 11331,10247 11385,10135 11451,10058 11382,10079 11313,10142 11242,10234 11277,10048 11329,9965 11379,9862 11325,9880 11277,9880 11196,9971 11261,9607 11349,9545 11464,9417 11345,9447 11228,9546 11112,9676 11197,9453 11298,9322 11402,9209 11336,9219 11273,9225 11152,9314 11221,9178 11315,9095 11408,9011 11311,9034 11213,9095 11114,9189 11227,8920 11309,8853 11397,8751 11374,8739 11299,8775 11203,8832 11301,8577 11396,8516 11507,8336 11330,8444 11167,8630 11002,8805 10975,8566 11390,8146 11629,8190 11349,8061 11223,8299 11006,8460 11187,8206 11317,8160 11360,7865 11316,8000 11217,8067 10944,8353 10944,8353 11008,8122 11077,8027 11126,7959 11270,7865 11270,7865 11270,7865 11173,7884 11131,7908 11021,7972 10851,8167 10851,8167 10851,8167 11013,7881 11120,7758 11180,7689 11324,7575 11324,7575 11324,7575 11158,7640 11088,7693 10981,7775 10819,7994 10819,7994 10819,7994 11036,7626 11195,7489 11269,7425 11387,7421 11453,7349 11520,7277 11572,7080 11572,7080 11572,7080 11469,7238 11409,7291 11327,7364 11227,7365 11141,7435 11073,7492 10969,7639 10969,7639 10969,7639 11061,7416 11152,7323 11210,7265 11311,7225 11367,7166 11430,7099 11514,6918 11514,6918 11514,6918 11391,7050 11335,7102 11276,7155 11198,7169 11141,7225 11077,7288 10980,7457 10980,7457 10980,7457 11057,7207 11131,7102 11221,6973 11475,6779 11475,6779 11475,6779 11247,6883 11152,6962 11054,7043 10905,7252 10905,7252 L 11163,6800 C 11163,6800 11284,6779 11335,6747 11416,6695 11529,6532 11529,6532 11529,6532 11419,6607 11357,6628 11308,6645 11206,6650 11206,6650 11206,6650 11383,6409 11443,6273 11470,6212 11497,6086 11497,6086 11450,5930 11405,5784 11405,5784 Z"/>
       </g>
      </g>
      <g class="com.sun.star.drawing.ClosedBezierShape">
       <g id="id10">
        <rect class="BoundingBox" stroke="none" fill="none" x="11412" y="10701" width="1082" height="547"/>
        <path fill="rgb(123,61,0)" stroke="none" d="M 11799,10701 C 11930,10704 11989,10850 12015,10989 12069,10940 12149,10911 12227,10912 12244,10913 12262,10914 12279,10918 12330,10928 12385,10960 12422,10996 12459,11032 12493,11116 12493,11116 L 12464,11163 12373,11226 12263,11247 12148,11237 11969,11192 11967,11214 11863,11209 11722,11214 11578,11210 11419,11185 C 11419,11185 11406,11113 11416,11083 11447,10989 11548,10927 11682,10929 11701,10929 11720,10931 11739,10934 11796,10943 11856,10971 11898,11004 11909,11012 11919,11023 11929,11035 11925,10891 11890,10766 11799,10701 Z M 12234,11014 C 12190,11013 12139,11025 12101,11048 12080,11061 12060,11085 12064,11109 12071,11147 12112,11157 12156,11169 12206,11182 12282,11189 12333,11177 12367,11169 12403,11166 12409,11132 12415,11105 12396,11074 12373,11059 12332,11032 12282,11016 12234,11014 Z M 11690,11020 C 11641,11019 11642,11030 11600,11050 11577,11062 11555,11083 11560,11104 11567,11139 11613,11147 11661,11158 11717,11170 11743,11176 11800,11165 11837,11158 11876,11155 11884,11125 11890,11101 11869,11073 11843,11060 11798,11036 11744,11021 11690,11020 Z"/>
       </g>
      </g>
      <g class="com.sun.star.drawing.ClosedBezierShape">
       <g id="id11">
        <rect class="BoundingBox" stroke="none" fill="none" x="10282" y="5547" width="2227" height="5725"/>
        <path fill="none" stroke="rgb(89,77,77)" stroke-width="37" stroke-linejoin="miter" d="M 11405,5784 C 11405,5784 11522,6163 11577,6375 11673,6749 11771,7347 11824,7729 11929,8485 11803,9494 11972,10024 12007,10135 12061,10199 12114,10240 12165,10280 12205,10416 12256,10480 12345,10592 12368,10716 12399,10823 12434,10941 12525,11021 12474,11132 12446,11192 12382,11229 12323,11245 12214,11274 11990,11199 11990,11199 11903,11244 11525,11201 11525,11201 11447,11181 11305,11206 11208,11199 11208,11199 11002,11133 10961,10988 10904,10787 11067,10255 11028,10049 11028,10049 10964,9632 10910,9428 10817,9076 10555,8396 10555,8396 L 10303,7821 11310,5591 11405,5784 Z"/>
       </g>
      </g>
      <g class="com.sun.star.drawing.ClosedBezierShape">
       <g id="id12">
        <rect class="BoundingBox" stroke="none" fill="none" x="997" y="9465" width="1058" height="1270"/>
        <path fill="rgb(184,92,0)" stroke="none" d="M 2020,9567 C 2020,9567 2164,9835 1852,10277 1611,10618 998,10734 998,10734 998,10734 1247,10121 1407,9844 1562,9548 1870,9465 1870,9465 L 2020,9567 Z"/>
       </g>
      </g>
      <g class="com.sun.star.drawing.ClosedBezierShape">
       <g id="id13">
        <rect class="BoundingBox" stroke="none" fill="none" x="968" y="9444" width="1105" height="1316"/>
        <path fill="none" stroke="rgb(126,25,17)" stroke-width="37" stroke-linejoin="miter" d="M 2020,9567 C 2020,9567 2164,9835 1852,10277 1611,10618 998,10734 998,10734 998,10734 1247,10121 1407,9844 1562,9548 1870,9465 1870,9465 L 2020,9567 Z"/>
       </g>
      </g>
      <g class="com.sun.star.drawing.ClosedBezierShape">
       <g id="id14">
        <rect class="BoundingBox" stroke="none" fill="none" x="1067" y="9532" width="927" height="1144"/>
        <path fill="rgb(232,162,2)" stroke="none" d="M 1924,10092 C 1944,9985 2062,9856 1933,9532 1704,9598 1496,9701 1423,9911 1514,9813 1590,9771 1664,9735 1664,9735 1484,9864 1416,9949 1351,10030 1270,10224 1270,10224 1337,10144 1402,10070 1460,10044 1460,10044 1294,10243 1226,10352 1163,10454 1067,10675 1067,10675 1067,10675 1184,10648 1240,10627 1320,10598 1394,10571 1457,10512 1555,10420 1667,10166 1667,10166 1679,10271 1601,10376 1545,10481 1545,10481 1651,10424 1684,10376 1759,10270 1803,10003 1803,10003 1834,10117 1771,10231 1735,10346 1735,10346 1825,10256 1850,10200 1905,10079 1922,9810 1922,9810 L 1924,10092 Z"/>
       </g>
      </g>
      <g class="com.sun.star.drawing.ClosedBezierShape">
       <g id="id15">
        <rect class="BoundingBox" stroke="none" fill="none" x="14523" y="5805" width="1888" height="908"/>
        <path fill="rgb(255,245,206)" stroke="none" d="M 14629,5805 C 15165,6224 15814,6538 16410,6661 15869,6808 15224,6637 14524,6142 14514,6156 14626,5814 14629,5805 Z"/>
       </g>
      </g>
      <g class="com.sun.star.drawing.ClosedBezierShape">
       <g id="id16">
        <rect class="BoundingBox" stroke="none" fill="none" x="14523" y="5946" width="1888" height="767"/>
        <path fill="rgb(255,245,206)" stroke="none" d="M 16410,6661 C 15869,6808 15224,6637 14524,6142 14518,6150 14552,6042 14583,5946 14934,6300 15806,6771 16410,6661 Z"/>
       </g>
      </g>
      <g class="com.sun.star.drawing.ClosedBezierShape">
       <g id="id17">
        <rect class="BoundingBox" stroke="none" fill="none" x="14521" y="6055" width="1092" height="610"/>
        <path fill="rgb(232,242,161)" stroke="none" d="M 15612,6664 C 15271,6586 14905,6413 14523,6142 14519,6147 14531,6108 14547,6055 14888,6341 15333,6541 15612,6664 Z"/>
       </g>
      </g>
      <g class="com.sun.star.drawing.ClosedBezierShape">
       <g id="id18">
        <rect class="BoundingBox" stroke="none" fill="none" x="14504" y="5786" width="1926" height="946"/>
        <path fill="none" stroke="rgb(126,25,17)" stroke-width="37" stroke-linejoin="round" d="M 14629,5805 C 15165,6224 15814,6538 16410,6661 15869,6808 15224,6637 14524,6142 14514,6156 14626,5814 14629,5805 Z"/>
       </g>
      </g>
      <g class="com.sun.star.drawing.ClosedBezierShape">
       <g id="id19">
        <rect class="BoundingBox" stroke="none" fill="none" x="1368" y="1604" width="13327" height="9657"/>
        <path fill="rgb(232,162,2)" stroke="none" d="M 11928,1605 C 12088,1603 12239,1620 12375,1670 13058,1919 13373,2980 13373,2980 14141,3561 14096,4105 14150,4411 14150,4411 14689,5013 14693,5711 14695,6238 14263,6812 14149,7327 14008,7969 14399,8873 14344,9527 14317,9845 14186,10213 13834,10250 13262,10310 13366,9803 13045,9753 12994,9745 12916,9771 12916,9771 12905,9642 13103,9524 13292,9666 13339,9537 13484,9521 13550,9579 13550,9579 13505,9706 13552,9759 13584,9796 13658,9826 13743,9781 13867,9715 13898,9561 13890,9462 13862,9104 13639,8668 13478,8118 13315,7558 13295,6819 13379,6402 13423,6183 13495,5916 13634,5698 13239,5761 13097,5624 13015,5448 12653,5554 12305,5544 12004,5429 12004,5429 11744,5485 11638,5559 11445,5693 11362,5837 11255,6047 11157,6239 11078,6580 10994,6778 10909,6977 10697,7263 10672,7297 10672,7307 10672,7318 10671,7328 10653,7690 10634,7990 10569,8346 10488,8792 10273,9272 10213,9721 10194,9860 10188,10003 10213,10141 10224,10206 10251,10155 10280,10326 10310,10501 10503,10597 10553,10767 10587,10885 10614,11029 10563,11140 10535,11200 10470,11237 10411,11253 10303,11282 10078,11207 10078,11207 9992,11252 9614,11209 9614,11209 9535,11189 9394,11214 9297,11206 9297,11206 9090,11141 9049,10996 8992,10795 9213,10536 9246,10329 9279,10128 9134,9305 9245,8779 9263,8697 9292,8644 9309,8563 9368,8285 9354,7991 9309,7710 9284,7554 9208,7410 9152,7261 9061,7263 8601,7276 8201,7318 7529,7388 6766,7663 6025,7800 5764,7849 5476,7807 5443,7790 5183,8308 4631,8524 4371,9041 4173,9434 3994,9895 4077,10327 4111,10503 4326,10598 4382,10767 4421,10885 4450,11029 4393,11140 4362,11200 4290,11237 4224,11253 4102,11282 3851,11207 3851,11207 3755,11252 3332,11209 3332,11209 3244,11189 3086,11214 2977,11207 2977,11207 2746,11141 2700,10996 2637,10796 2840,10613 2878,10407 2907,10250 2859,10087 2878,9929 2960,9244 3365,8479 3356,7616 3352,7279 3328,7054 3245,6811 3236,6784 3199,6826 3199,6826 2835,7755 2682,8604 2020,9568 1854,9811 1680,10157 1368,10359 1472,10145 1689,9733 1886,9449 2085,9163 2307,8793 2780,7230 3091,6204 3079,4776 3805,3728 4044,3323 4344,2947 4828,2618 5442,2201 6146,1869 6879,1747 7658,1619 8509,1904 9298,1910 9562,1912 9768,1828 10032,1807 10201,1794 10369,1866 10537,1844 10908,1796 11451,1611 11928,1605 Z"/>
       </g>
      </g>
      <g class="com.sun.star.drawing.ClosedBezierShape">
       <g id="id20">
        <rect class="BoundingBox" stroke="none" fill="none" x="1377" y="1604" width="13318" height="9657"/>
        <path fill="rgb(184,92,0)" stroke="none" d="M 11928,1605 C 12088,1603 12239,1620 12375,1670 13058,1919 13373,2980 13373,2980 14141,3561 14096,4105 14150,4411 14150,4411 14689,5013 14693,5711 14695,6238 14263,6812 14149,7327 14008,7969 14399,8873 14344,9527 14317,9845 14186,10213 13834,10250 13262,10310 13366,9803 13045,9753 12994,9745 12916,9771 12916,9771 12916,9771 13013,9690 13126,9734 13353,9823 13418,10172 13748,10156 14145,10138 14298,9650 14210,9325 14169,9173 14087,8997 14042,8906 13898,8616 13851,8428 13807,8262 13750,8044 13698,7864 13674,7538 13649,7213 13612,7065 13682,6747 13600,6721 13519,6773 13437,6789 13425,6708 13468,6627 13564,6546 13488,6568 13411,6582 13350,6679 L 13350,6511 13449,6119 13622,5703 C 13275,5757 13096,5640 12993,5449 12141,5690 11622,5255 11451,5033 11443,5023 11435,5014 11427,5004 11430,5007 11432,5010 11434,5013 11417,5070 11396,5120 11334,5102 11334,5102 11321,4984 11298,4930 11281,4890 11267,4834 11225,4821 11181,4808 11144,4881 11099,4876 11043,4869 11027,4808 10991,4764 10951,4715 10855,4661 10881,4604 10905,4552 11017,4608 11044,4558 11070,4512 11030,4448 10999,4404 10975,4371 10910,4371 10899,4332 10875,4247 10999,4087 10999,4087 L 11008,3906 C 11008,3906 10897,4002 10854,4060 10790,4145 10700,4341 10700,4341 10684,4357 10610,4214 10700,4051 10751,3957 10836,3761 10836,3761 10836,3761 10670,3867 10609,3942 10588,3968 10564,4033 10564,4033 10564,4033 10511,3919 10519,3861 10533,3741 10691,3543 10691,3543 10691,3543 10461,3591 10364,3652 10258,3719 10107,3895 10107,3895 10107,3895 10042,3795 10183,3625 10253,3541 10455,3444 10455,3444 10455,3444 10228,3443 10120,3471 10056,3487 9938,3552 9938,3552 9938,3552 10033,3370 10109,3318 10183,3267 10285,3269 10374,3253 10472,3236 10673,3253 10673,3253 10673,3253 10423,3146 10292,3154 10208,3158 10135,3173 10056,3202 9999,3224 9884,3308 9884,3308 9839,3315 9914,3142 10029,3072 10098,3030 10168,2982 10247,2963 10282,2955 10392,2963 10392,2963 10392,2963 10240,2904 10176,2911 10084,2921 10015,2977 9928,3005 9863,3026 9741,3081 9741,3081 9741,3081 9814,2934 9884,2882 9937,2842 10001,2814 10065,2800 10195,2772 10464,2800 10464,2800 10464,2800 10211,2710 10084,2728 9963,2744 9853,2815 9757,2891 9720,2920 9667,3000 9667,3000 9667,3000 9650,2900 9667,2855 9699,2768 9767,2691 9848,2646 9947,2591 10131,2569 10131,2569 10131,2569 9965,2562 9866,2601 9780,2634 9709,2706 9658,2782 9600,2867 9558,3072 9558,3072 L 9457,3143 C 9520,2984 9499,2786 9679,2624 9765,2548 9845,2502 9958,2485 10317,2432 10769,2588 10968,2929 11155,3252 11139,3682 11143,4069 11144,4108 11145,4148 11146,4186 11148,4193 11242,4552 11330,4715 11399,4843 11488,4964 11596,5062 11705,5162 11971,5299 11971,5299 11930,5229 11926,5175 11948,5096 12015,5229 12143,5346 12266,5391 12337,5416 12491,5403 12491,5403 12491,5403 12398,5380 12358,5356 12165,5247 12082,5099 12104,4917 12266,5134 12422,5337 12703,5289 12515,5227 12315,5182 12208,4767 12380,4969 12564,5117 12803,5120 L 12797,5056 12705,4900 C 12705,4900 12826,4949 12872,4992 12932,5049 12978,5102 13018,5174 13057,5243 13108,5329 13162,5387 13285,5521 13357,5470 13535,5465 13491,5323 13468,5216 13268,5033 13291,4999 13334,4982 13389,5037 13341,4951 13368,4995 13263,4885 13314,4851 13320,4846 13380,4913 13339,4793 13346,4785 13269,4729 13313,4696 13356,4682 13409,4755 13409,4755 13410,4730 13383,4677 13356,4624 13257,4538 13257,4538 13257,4538 13446,4619 13506,4663 13565,4706 13642,4748 13657,4819 13666,4866 13608,4905 13605,4952 13597,5071 13692,5188 13709,5306 13731,5464 13742,5635 13741,5634 L 14061,5934 14099,5720 C 14103,5601 14092,5481 14071,5365 14032,5153 13955,4943 13840,4760 13799,4694 13707,4603 13645,4545 13608,4510 13680,4662 13544,4631 13455,4611 13317,4383 13320,4337 13320,4329 13350,4319 13378,4334 13418,4356 13481,4395 13454,4345 13454,4345 13472,4341 13416,4270 13416,4270 13438,3960 13278,3864 13055,3731 12895,3893 12736,3846 12697,3835 12676,3789 12676,3789 L 13165,3706 C 12950,3472 12988,3151 13085,2869 13119,2785 13059,2769 12979,2796 12471,3027 12113,3014 11570,2891 L 11527,2903 C 11527,2903 11515,2955 11523,2980 11539,3032 11581,3075 11623,3109 11665,3142 11717,3159 11767,3176 11839,3200 11913,3223 11988,3224 12059,3226 12199,3186 12199,3186 L 12156,3349 12285,3258 12324,3306 C 12324,3306 12415,3233 12463,3200 12500,3175 12533,3124 12578,3128 12604,3131 12635,3181 12635,3181 12635,3181 12671,3109 12703,3085 12786,3022 13000,2984 13000,2984 13000,2984 12904,3126 12875,3205 12847,3283 12857,3371 12832,3450 12811,3517 12741,3642 12741,3642 12741,3642 12669,3555 12650,3502 12625,3434 12626,3287 12626,3287 12626,3287 12466,3446 12420,3546 12386,3617 12372,3776 12372,3776 12372,3776 12328,3689 12324,3642 12316,3561 12362,3402 12362,3402 12151,3639 12240,4028 12301,4085 12236,4275 12209,4446 12304,4558 12211,4547 12098,4540 12004,4458 11870,4342 11774,4124 11828,3952 11739,4139 11761,4486 11882,4812 11732,4730 11634,4559 11575,4423 11535,4328 11526,4222 11503,4121 11473,3984 11417,3709 11417,3709 L 11383,4035 11345,3942 C 11264,3748 11439,3384 11390,3153 11349,2961 11269,2885 11166,2777 10920,2519 10515,2465 10102,2447 L 10011,2474 9830,2510 9739,2565 C 9774,2273 9529,2172 9349,2202 9060,2251 9073,2491 8896,2509 8725,2527 8564,2279 8363,2221 8059,2133 7678,2086 7338,2102 6819,2128 6526,2450 6063,2684 5760,2838 5397,2678 5066,2836 4637,3041 4148,3472 3902,3824 L 3364,4593 3570,4111 3805,3728 C 4044,3323 4344,2947 4828,2618 5442,2201 6146,1869 6879,1747 7658,1619 8509,1904 9298,1910 9562,1912 9768,1828 10032,1807 10201,1794 10369,1866 10537,1844 10908,1796 11451,1611 11928,1605 Z M 11949,1789 C 11674,1789 11356,1949 11393,2030 11466,2193 11395,2218 11509,2269 11649,2330 11978,2224 12068,2329 12168,2422 11694,2443 11815,2610 12128,2810 12513,2792 12938,2655 12938,2655 12984,2644 12988,2625 12887,2479 12778,2240 12662,2132 12482,1965 12275,1827 12032,1794 12005,1791 11977,1789 11949,1789 Z M 12882,2541 L 12907,2604 C 12505,2742 12065,2707 11922,2554 12252,2633 12564,2641 12882,2541 Z M 10887,2736 C 10887,2736 10969,2769 11001,2797 11067,2855 11122,2930 11154,3011 11339,3480 11216,4024 11353,4509 11380,4606 11422,4699 11475,4784 11513,4846 11613,4952 11613,4952 11613,4952 11494,4882 11452,4830 11380,4740 11306,4620 11276,4509 11193,4203 11257,3883 11208,3569 11178,3381 11172,3184 11093,3011 11045,2907 10887,2736 10887,2736 Z M 8645,2889 L 8645,2961 C 8645,2961 8549,3170 8527,3282 8490,3470 8488,3666 8508,3858 8520,3978 8593,4211 8593,4211 8593,4211 8455,4017 8422,3884 8377,3697 8395,3427 8449,3242 8489,3104 8625,2902 8625,2902 L 8645,2889 Z M 5051,3016 C 4698,3327 4486,3500 4305,3939 L 4419,3560 C 4184,3725 4062,3946 3888,4141 4214,3550 4441,3335 5051,3016 Z M 8959,3045 C 8909,3218 8641,3548 8806,3963 8565,3744 8680,3263 8938,3054 L 8959,3045 Z M 9169,3111 C 9118,3284 8850,3614 9016,4028 8774,3809 8889,3329 9147,3120 L 9169,3111 Z M 5935,3205 C 5935,3205 5770,3468 5716,3613 5662,3760 5617,4071 5617,4071 5743,3744 5710,3620 6045,3454 5864,3603 5815,3846 5726,4021 5672,4126 5617,4280 5617,4280 5617,4280 5719,4167 5786,4071 5925,3832 5825,3768 6134,3673 6000,3788 5929,3935 5876,4095 6042,3846 6275,3657 6588,3540 6613,3531 6633,3527 6651,3526 6705,3524 6738,3551 6811,3539 6587,3906 6316,4266 6205,4687 6166,4940 6116,5249 6117,5506 6118,5573 6174,5589 6173,5656 6173,5656 6220,5559 6250,5418 6285,5252 6307,5030 6362,4900 6396,4819 6501,4674 6501,4674 6501,4674 6438,4873 6428,4997 6404,5290 6425,5633 6416,5721 6399,5886 6377,6014 6377,6014 L 6502,5906 C 6531,6103 6525,6300 6444,6497 6444,6497 6693,6092 6710,6064 6734,6026 6836,6452 6791,6494 L 6985,6381 7035,6647 7219,6422 7315,6600 C 7199,6366 7498,6164 7167,5637 7435,5833 7680,6046 7772,6393 L 7927,6022 8078,6339 C 8046,6135 7962,6074 8178,5747 8271,5790 8330,5983 8403,6214 8382,5964 8317,5252 8416,5036 8442,5405 8534,5787 8703,6047 L 8702,5873 C 8715,5726 8642,5552 8641,5404 8641,5316 8643,5227 8660,5140 8696,4954 8812,4787 8836,4599 8851,4488 8875,4376 8860,4265 8847,4161 8797,3957 8797,3957 8797,3957 8936,4171 8974,4291 9013,4416 9022,4550 9024,4681 9027,4820 8985,4957 8986,5096 8987,5258 9001,5422 9037,5581 9078,5767 9225,6122 9225,6122 9225,6122 9371,5886 9433,5763 9476,5677 9546,5499 9546,5499 9546,5499 9583,5718 9565,5826 9540,5982 9458,6124 9389,6266 9332,6382 9230,6476 9194,6600 9168,6686 9171,6781 9181,6870 9195,6998 9206,7138 9282,7242 9307,7276 9347,7307 9389,7311 9425,7314 9459,7288 9490,7267 9548,7227 9599,7173 9641,7116 9705,7028 9751,6927 9792,6826 9826,6741 9851,6652 9874,6562 9874,6562 9812,6360 9809,6255 9804,6142 9817,6025 9855,5919 9895,5809 10042,5621 10042,5621 L 9911,5966 9883,6190 9943,6310 C 9974,6211 10043,6015 10043,6015 10043,6015 10056,6428 10025,6631 10003,6767 9934,6892 9911,7028 9935,6987 10353,7404 10006,7994 L 10103,7994 9861,8321 10018,8321 9740,8624 9921,8624 9776,8781 9873,8769 9704,8999 9873,8999 9595,9422 9776,9362 9607,9628 9776,9592 9667,9858 9849,9870 9634,10092 C 9650,10112 9685,10107 9704,10124 9749,10164 9798,10281 9798,10281 L 9634,10319 C 9634,10319 9757,10354 9804,10394 9834,10420 9854,10458 9869,10500 L 9515,10568 C 9515,10568 9412,10654 9394,10714 9373,10786 9419,10937 9419,10937 9419,10937 9497,10860 9546,10841 9607,10816 9678,10807 9743,10820 9807,10834 9915,10917 9915,10917 9915,10917 9923,10858 9915,10831 9888,10748 9743,10659 9743,10659 9743,10659 9953,10634 10031,10699 10088,10747 10152,10901 10152,10901 10152,10901 10255,10854 10304,10846 10370,10834 10476,10866 10476,10866 10476,10866 10462,10766 10435,10724 10389,10652 10238,10558 10238,10558 10265,10474 10180,10392 10163,10306 10132,10151 10109,9992 10113,9834 10117,9650 10154,9467 10194,9287 10266,8970 10412,8673 10478,8355 10531,8095 10551,7828 10566,7563 10584,7238 10570,6912 10566,6587 10561,6279 10541,5662 10541,5662 10556,5664 10563,5642 10610,5744 10610,5744 10629,5160 10572,4876 10498,4589 10492,4496 10281,4339 10235,4305 10193,4297 10164,4388 10099,4633 10087,4849 10246,5105 10053,5046 10029,4667 10085,4210 9916,4547 9960,4912 10125,5163 9852,5067 9836,4501 9938,4030 9938,4030 9806,4326 9793,4413 9780,4499 9777,4717 9785,4803 9791,4868 9834,5071 9834,5071 9834,5110 9746,4978 9717,4818 9694,4682 9662,4543 9679,4406 9696,4264 9811,3974 9811,3974 9811,3959 9691,4061 9631,4267 9583,4436 9573,4602 9578,4592 9560,4662 9516,4497 9568,4263 9586,4182 9605,4101 9636,4025 9672,3939 9810,3750 9810,3750 9810,3750 9679,3579 9602,3556 9287,3481 9215,3734 9217,4007 9072,3791 9188,3569 9345,3454 L 9525,3420 9752,3517 9892,3672 9999,3875 10096,4069 10241,4204 10371,4272 10446,4316 10591,4435 10736,4725 11063,4970 11365,5379 C 11508,5316 11530,5253 11598,5190 11702,5270 11772,5350 12004,5429 12004,5429 11744,5485 11638,5559 11445,5693 11362,5837 11255,6047 11157,6239 11078,6580 10994,6778 10909,6977 10697,7263 10672,7297 10672,7307 10672,7318 10671,7328 10653,7690 10634,7990 10569,8346 10488,8792 10273,9272 10213,9721 10194,9860 10188,10003 10213,10141 10224,10206 10251,10155 10280,10326 10310,10501 10503,10597 10553,10767 10587,10885 10614,11029 10563,11140 10535,11200 10470,11237 10411,11253 10303,11282 10078,11207 10078,11207 9992,11252 9614,11209 9614,11209 9535,11189 9394,11214 9297,11206 9297,11206 9090,11141 9049,10996 8992,10795 9213,10536 9246,10329 9279,10128 9134,9305 9245,8779 9263,8697 9292,8644 9309,8563 9368,8285 9354,7991 9309,7710 9284,7554 9208,7410 9152,7261 8064,7223 6991,7615 6025,7800 5764,7849 5476,7807 5443,7790 5183,8308 4631,8524 4371,9041 4173,9434 3994,9895 4077,10327 4111,10503 4326,10598 4382,10767 4421,10885 4450,11029 4393,11140 4362,11200 4290,11237 4224,11253 4102,11282 3851,11207 3851,11207 3755,11252 3332,11209 3332,11209 3244,11189 3086,11214 2977,11207 2977,11207 2746,11141 2700,10996 2637,10796 2840,10613 2878,10407 2907,10250 2859,10087 2878,9929 2960,9244 3365,8479 3356,7616 3352,7279 3328,7054 3245,6811 3236,6784 3562,5900 3199,6826 2835,7755 2682,8604 2020,9568 1854,9811 1680,10157 1377,10353 1377,10353 1523,10187 1589,10098 1758,9868 1914,9627 2057,9380 2206,9123 2343,8857 2462,8585 2644,8169 2781,7735 2930,7306 3048,6967 3159,6522 3238,6172 3319,5812 3318,5544 3406,5185 3445,5023 3500,4864 3577,4717 3667,4547 3913,4249 3913,4249 3913,4249 3819,4495 3827,4623 3834,4734 3920,4827 3944,4935 4027,5305 4008,5554 3939,5783 3939,5783 3879,6027 3896,6148 3914,6271 3996,6375 4044,6490 4102,6626 4177,6757 4215,6899 4253,7040 4291,7188 4272,7332 4251,7491 4186,7648 4090,7776 4023,7864 3828,7981 3828,7981 L 4022,7970 3839,8174 3976,8209 3726,8482 3862,8505 3635,8709 3896,8709 C 3896,8709 3823,8959 3748,9062 3687,9147 3509,9267 3509,9267 3514,9345 3683,9305 3498,9518 3498,9518 3616,9499 3669,9472 3748,9431 3874,9301 3874,9301 3874,9301 3828,9490 3782,9575 3736,9660 3600,9802 3600,9802 L 3748,9916 3390,10066 C 3390,10066 3522,10087 3570,10129 3635,10186 3687,10363 3687,10363 3687,10363 3328,10349 3160,10545 3092,10624 3094,10854 3094,10854 3094,10833 3214,10696 3341,10707 3251,10762 3169,10821 3166,10926 3340,10819 3615,10742 3757,10948 3756,10841 3705,10760 3657,10667 3718,10656 3833,10692 3968,10843 3961,10875 4063,10718 4243,10769 4272,10636 3965,10523 3921,10394 3858,10212 3920,10006 3960,9817 4005,9598 4093,9389 4186,9185 4283,8973 4388,8762 4529,8577 4713,8334 5006,8183 5176,7930 5270,7789 5316,7728 5371,7568 5438,7374 5498,7236 5535,7035 5582,6775 5588,6344 5570,6081 5555,5874 5575,5574 5538,5369 5546,5118 5575,4885 5628,4675 5600,4709 5574,4748 5557,4787 5464,5008 5487,5583 5487,5583 5487,5583 5358,5285 5388,4986 5421,4650 5597,4469 5597,4469 5597,4469 5439,4572 5388,4648 5322,4747 5278,4986 5278,4986 5278,4986 5275,4717 5308,4588 5354,4408 5435,4319 5487,4140 5532,3989 5544,3758 5607,3613 5677,3453 5935,3205 5935,3205 Z M 13657,3561 C 13649,3561 13642,3562 13634,3566 13613,3577 13583,3576 13574,3600 13558,3646 13659,3689 13690,3721 13746,3779 13824,3922 13885,4056 13941,4179 13963,4224 13963,4224 13968,4217 13977,4202 13975,4193 13969,4023 13844,3649 13657,3561 Z M 13086,3915 C 13116,3916 13145,3921 13172,3934 13323,4013 13287,4183 13297,4216 13303,4237 13308,4275 13287,4282 13196,4302 13090,4293 13013,4238 12974,4210 12901,4175 12862,4053 12709,4044 12690,3995 12706,3950 12705,3931 12796,3991 12886,3957 12948,3936 13020,3913 13086,3915 Z M 12687,4088 C 12687,4088 12713,4182 12741,4215 12778,4259 12822,4284 12876,4302 12959,4329 13067,4312 13149,4342 13192,4358 13249,4418 13249,4418 13249,4418 13161,4379 13122,4372 13030,4356 12953,4393 12863,4367 12785,4344 12705,4295 12673,4220 12655,4177 12687,4088 12687,4088 Z M 12552,4277 C 12559,4276 12565,4277 12571,4278 12623,4292 12652,4349 12698,4375 12746,4401 12854,4425 12854,4425 12854,4425 12800,4440 12773,4438 12730,4436 12686,4426 12648,4406 12593,4377 12507,4285 12507,4285 12507,4285 12531,4278 12552,4277 Z M 12467,4357 C 12467,4357 12510,4403 12537,4419 12571,4440 12648,4465 12648,4465 12648,4465 12590,4488 12562,4481 12524,4471 12489,4441 12471,4407 12463,4392 12467,4357 12467,4357 Z M 11157,4375 C 11175,4562 11217,4727 11316,4845 11233,4704 11179,4548 11157,4375 Z M 9607,6456 C 9630,6455 9656,6459 9676,6478 9720,6523 9725,6585 9719,6645 9712,6704 9693,6763 9683,6812 9658,6932 9616,7057 9534,7154 9514,7178 9490,7206 9460,7229 9431,7251 9395,7269 9355,7263 9328,7259 9309,7242 9295,7224 9282,7206 9273,7185 9267,7167 9231,7060 9255,6942 9289,6841 9318,6758 9382,6698 9424,6636 9440,6614 9454,6583 9471,6553 9488,6522 9509,6491 9545,6473 9563,6464 9584,6457 9607,6456 Z M 13586,6796 C 13586,6796 13580,7333 13609,7611 13636,7871 13703,8126 13770,8379 13843,8659 14079,9171 14079,9171 14079,9171 13778,8711 13689,8448 13602,8192 13535,7926 13506,7657 13476,7379 13494,6842 13494,6842 L 13586,6796 Z M 13421,9551 C 13389,9600 13283,9730 13355,9867 13285,9716 13202,9615 13092,9601 13146,9596 13220,9612 13292,9666 13317,9599 13368,9562 13421,9551 Z"/>
       </g>
      </g>
      <g class="com.sun.star.drawing.ClosedBezierShape">
       <g id="id21">
        <rect class="BoundingBox" stroke="none" fill="none" x="2688" y="1605" width="12008" height="9662"/>
        <path fill="rgb(123,61,0)" stroke="none" d="M 11928,1605 C 12088,1603 12239,1620 12375,1670 13058,1919 13374,2980 13374,2980 L 13431,3024 C 14140,3589 14098,4113 14151,4411 14151,4411 14690,5013 14694,5711 14696,6208 14313,6745 14174,7236 L 14183,7189 C 14001,7128 13837,7167 13655,7191 13797,7123 14023,7079 14216,7091 L 14232,7047 C 14046,7035 13858,7027 13647,7064 13853,6973 14059,6978 14265,6971 L 14276,6943 C 14060,6918 13844,6892 13641,6927 13818,6862 14058,6859 14309,6867 L 14325,6834 C 14096,6802 13914,6770 13612,6823 13783,6735 13935,6700 14110,6728 14114,6728 13987,6665 13836,6634 13728,6611 13545,6676 13541,6679 13616,6615 13616,6561 13772,6529 13650,6463 13589,6499 13482,6516 13482,6516 13568,6405 13641,6389 13793,6356 13953,6329 14108,6353 14198,6367 14361,6457 14361,6457 14361,6457 14228,6324 14148,6276 14065,6225 13972,6185 13876,6167 13814,6155 13686,6167 13686,6167 13686,6167 13836,6097 13917,6090 14002,6082 14090,6099 14171,6126 14252,6153 14458,6266 14458,6266 14342,6060 14151,6025 13830,5987 14023,5890 14249,5957 14546,6081 14406,5874 14109,5811 13822,5824 14050,5771 14187,5728 14563,5910 14401,5696 14086,5663 13836,5697 14108,5558 14307,5635 14554,5765 14449,5539 14039,5523 13833,5536 14016,5445 14306,5460 14562,5594 14434,5372 14116,5358 13862,5381 14049,5317 14247,5278 14511,5381 14428,5271 14331,5151 13842,5265 13996,5087 14220,5166 14460,5185 14330,5067 14072,4979 13805,5120 13914,4993 13988,4951 14375,5006 14291,4968 14157,4805 13761,4974 13943,4731 14194,4879 14307,4878 14164,4795 13930,4757 13722,4824 13863,4707 14053,4715 14237,4732 14127,4656 13893,4660 13694,4696 13785,4627 13988,4576 14168,4608 14000,4504 13808,4534 13614,4571 13614,4571 13603,4603 13591,4614 13517,4617 13412,4437 13363,4372 13356,4334 13472,4408 13472,4408 13583,4380 13698,4372 13812,4365 13722,4316 13621,4315 13520,4315 13699,4207 13951,4353 13992,4293 14027,4241 14036,4160 14027,4118 13998,4001 13964,3881 13929,3797 13873,3666 13802,3538 13706,3434 13620,3341 13436,3137 13383,3252 13383,3252 13374,3538 13425,3690 13467,3816 13561,3920 13648,4020 13721,4104 13896,4243 13896,4243 13783,4207 13681,4223 13549,4086 L 13483,4202 C 13483,4202 13491,4060 13466,3995 13440,3928 13390,3868 13334,3822 13284,3782 13223,3751 13160,3739 13095,3727 13027,3744 12962,3756 12914,3765 12870,3793 12822,3797 12769,3802 12665,3781 12665,3781 12665,3781 12818,3683 12904,3665 12988,3647 13160,3673 13160,3673 13060,3441 13007,3076 13218,2856 13218,2856 12910,1937 12284,1732 11712,1545 10864,1942 10537,1974 10393,1988 10260,1920 10116,1912 9887,1899 9625,2015 9376,2023 8628,2046 7637,1744 6899,1865 6146,1989 5484,2297 4884,2698 4157,3184 3805,3728 3805,3728 4044,3323 4344,2947 4828,2618 5442,2201 6146,1869 6879,1747 7658,1619 8509,1904 9298,1910 9562,1912 9768,1828 10032,1807 10201,1794 10369,1866 10537,1844 10908,1796 11451,1611 11928,1605 Z M 14174,7236 L 14167,7271 C 14166,7271 14165,7271 14164,7271 14167,7259 14170,7248 14174,7236 Z M 14164,7271 C 14159,7290 14155,7308 14150,7327 14119,7469 14114,7623 14124,7784 13987,7734 13850,7713 13713,7736 13839,7670 13979,7680 14117,7687 L 14112,7621 C 13979,7609 13862,7579 13707,7589 13840,7502 13973,7549 14106,7539 L 14117,7468 C 13977,7451 13837,7407 13696,7446 13849,7367 14027,7374 14123,7408 L 14139,7343 C 13979,7297 13818,7318 13658,7332 13827,7272 13995,7222 14164,7271 Z M 14124,7784 C 14125,7784 14127,7785 14128,7785 14127,7785 14125,7785 14124,7785 L 14124,7784 Z M 14124,7785 C 14126,7811 14128,7838 14130,7864 L 14128,7851 C 13998,7838 13866,7837 13724,7873 13857,7791 13991,7783 14124,7785 Z M 14130,7864 L 14139,7928 C 14138,7928 14137,7927 14136,7927 14134,7906 14132,7885 14130,7864 Z M 14136,7927 C 14195,8464 14384,9059 14345,9527 14300,9491 14311,9482 14177,9401 14204,9380 14265,9411 14342,9465 L 14342,9376 C 14299,9344 14263,9311 14149,9279 14218,9244 14275,9274 14332,9300 L 14332,9209 C 14276,9169 14220,9129 14116,9138 14186,9066 14256,9113 14326,9120 L 14314,9025 C 14221,8986 14129,8943 14036,8964 14107,8906 14199,8918 14293,8934 L 14278,8849 C 14202,8789 14094,8769 13957,8784 14058,8708 14158,8716 14259,8696 L 14241,8614 C 14099,8594 13956,8555 13814,8581 13926,8502 14085,8529 14232,8532 L 14208,8450 C 14087,8426 13954,8416 13784,8441 13934,8359 14066,8351 14191,8368 L 14175,8294 C 14034,8247 13941,8285 13800,8296 13859,8246 14018,8174 14167,8204 L 14147,8124 C 14034,8093 13905,8146 13781,8174 13887,8102 13998,8040 14141,8030 14008,7975 13884,7962 13751,7993 13879,7928 14008,7919 14136,7927 Z M 9990,2473 C 10003,2473 10020,2475 10039,2477 10011,2479 9984,2481 9958,2485 9953,2477 9965,2473 9990,2473 Z M 10039,2477 C 10084,2475 10130,2475 10177,2479 10480,2504 10794,2663 10968,2929 11201,3287 11127,3795 11158,4252 11158,4252 11110,4053 11087,3871 11073,3762 10890,3682 10871,3564 10835,3341 10950,3080 10846,2932 10638,2634 10216,2501 10039,2477 Z M 13313,3048 C 13300,3048 13287,3054 13278,3070 13154,3231 13175,3463 13295,3656 13249,3440 13225,3263 13350,3105 13366,3082 13340,3049 13313,3048 Z M 11509,3186 C 11510,3186 11512,3186 11513,3186 11539,3191 11610,3271 11624,3335 11635,3384 11624,3456 11624,3456 L 11703,3383 C 11758,3370 11844,3316 11805,3426 L 11793,3583 11950,3474 C 12045,3421 12034,3482 12053,3510 12053,3510 11985,3730 11993,3842 11999,3939 12070,4057 12077,4078 12095,4131 12057,4157 12041,4211 12035,4233 12031,4310 12031,4310 12031,4310 11892,4238 11866,4084 11852,4003 11866,3836 11866,3836 11866,3836 11806,3883 11782,3934 11740,4022 11717,4152 11710,4249 11705,4318 11710,4455 11710,4455 11634,4225 11620,4068 11703,3772 11569,3985 11613,4218 11659,4467 11659,4467 11583,4308 11565,4225 11531,4075 11510,3766 11510,3766 L 11449,3589 11485,3419 11503,3196 C 11503,3190 11505,3187 11509,3186 Z M 6509,3671 C 6509,3671 6220,4055 6118,4270 6027,4463 5968,4671 5926,4880 5865,5180 5839,5794 5839,5794 5839,5794 5905,5223 5987,4949 6052,4734 6139,4523 6257,4331 6326,4219 6509,4026 6509,4026 6509,4026 6377,4206 6327,4305 6214,4526 6128,4762 6065,5002 5981,5326 5917,5994 5917,5994 L 5865,6438 C 5865,6438 5910,6356 5935,6317 6032,6164 6180,6040 6248,5872 6289,5772 6300,5550 6300,5550 6300,5550 6331,5809 6300,5933 6263,6086 6142,6206 6083,6351 6011,6526 5917,6891 5917,6891 5917,6891 6131,6613 6222,6465 6298,6342 6422,6081 6422,6081 6422,6081 6374,6401 6318,6552 6252,6728 6048,7048 6048,7048 6048,7048 6250,6897 6344,6813 6430,6736 6531,6669 6588,6569 6645,6470 6675,6238 6675,6238 6675,6238 6678,6384 6666,6456 6653,6536 6629,6616 6597,6691 6528,6846 6335,7126 6335,7126 6335,7126 6607,6953 6718,6839 6798,6757 6919,6560 6919,6560 6919,6560 6869,6732 6832,6813 6777,6930 6631,7144 6631,7144 6631,7144 7063,6950 7180,6761 7222,6693 7215,6526 7215,6526 7215,6526 7238,6720 7215,6813 7192,6902 7084,7057 7084,7057 7084,7057 7320,7010 7378,6903 7439,6791 7396,6619 7398,6491 7400,6354 7440,6288 7441,6151 7442,6068 7389,5907 7389,5907 7389,5907 7502,6022 7543,6110 7593,6219 7580,6374 7633,6482 7682,6583 7868,6726 7868,6726 L 7816,6552 8059,6795 C 8059,6795 7974,6614 7955,6517 7932,6397 7946,6151 7946,6151 7946,6151 7984,6345 8042,6421 8130,6537 8399,6674 8399,6674 8399,6674 8198,6436 8164,6290 8134,6163 8199,5899 8199,5899 8199,5899 8223,6177 8295,6290 8379,6423 8660,6586 8660,6586 8660,6586 8521,6303 8486,6151 8448,5984 8451,5637 8451,5637 8451,5637 8536,5911 8599,6038 8686,6211 8913,6526 8913,6526 8913,6526 8833,6320 8817,6212 8804,6123 8817,5942 8817,5942 8817,5942 8833,6110 8878,6177 8903,6214 8984,6258 8984,6258 8984,6258 8887,5997 8851,5863 8824,5765 8797,5666 8787,5565 8773,5421 8767,5274 8793,5132 8825,4965 8972,4655 8972,4655 8972,4655 8950,4926 8952,5062 8956,5243 8961,5426 8997,5603 9032,5775 9130,5932 9162,6105 9179,6197 9175,6385 9175,6385 9175,6385 9308,6172 9372,6022 9424,5901 9487,5775 9518,5647 9540,5561 9537,5380 9537,5380 9537,5380 9577,5549 9569,5634 9556,5779 9490,5914 9436,6048 9356,6245 9202,6413 9156,6620 9127,6750 9132,6891 9162,7021 9188,7130 9217,7260 9309,7326 9354,7358 9423,7366 9474,7345 9650,7272 9738,7066 9830,6900 9898,6776 9937,6637 9970,6499 9999,6376 10021,6124 10021,6124 10021,6124 10067,6412 10059,6556 10052,6671 10070,6574 9989,6893 9921,7160 9479,7517 9455,7726 9736,7553 9876,7341 9989,7167 9939,7417 9690,7705 9480,7955 9781,7713 10005,7482 10072,7358 9979,7641 9727,7845 9506,8063 9506,8063 9812,7928 9938,7822 10000,7769 10091,7631 10091,7631 10020,8028 9439,8104 9441,8403 9634,8259 9827,8104 10020,8028 9879,8186 9775,8230 9634,8465 9739,8425 9819,8402 9840,8418 9736,8503 9643,8555 9485,8801 9599,8725 9706,8682 9805,8676 9699,8743 9592,8809 9500,8930 9635,8863 9698,8869 9765,8870 9643,8964 9520,9075 9398,9280 9534,9172 9667,9095 9789,9085 9654,9192 9557,9237 9429,9584 9525,9509 9572,9517 9628,9509 9562,9602 9495,9675 9429,9852 9514,9773 9594,9723 9665,9715 9587,9779 9514,9880 9450,10028 9571,9914 9660,9892 9739,9903 9640,9966 9541,10083 9441,10244 9441,10244 9570,10203 9634,10212 9671,10218 9734,10262 9734,10262 9734,10262 9640,10258 9597,10275 9515,10306 9385,10430 9385,10430 9385,10430 9515,10400 9578,10411 9626,10420 9709,10474 9709,10474 9709,10474 9443,10481 9348,10561 9276,10622 9238,10727 9236,10822 9235,10884 9294,10981 9305,11042 9316,11111 9297,11206 9297,11206 9297,11206 9090,11141 9049,10996 8992,10795 9213,10536 9246,10329 9279,10128 9134,9305 9245,8779 9263,8697 9292,8644 9309,8563 9368,8285 9354,7991 9309,7710 9284,7554 9208,7410 9152,7261 L 9098,7088 9079,7000 C 9079,7000 8755,7002 8600,7019 8085,7075 7455,7231 6947,7334 6586,7407 6335,7518 5969,7561 5812,7580 5511,7661 5539,7577 5607,7374 5654,7116 5681,6924 5771,6269 5683,5475 5834,4831 6041,3952 6509,3671 6509,3671 Z M 13076,3957 C 13105,3958 13136,3965 13168,3981 13298,4048 13255,4179 13274,4243 13049,4325 12908,4203 12897,3997 12954,3981 13012,3955 13076,3957 Z M 10583,4422 L 10677,4633 10747,4739 11065,4974 11241,5244 11376,5367 C 11459,5320 11545,5273 11588,5185 11613,5292 11659,5369 11770,5447 11693,5436 11603,5440 11561,5325 11534,5414 11562,5471 11610,5520 11545,5509 11480,5479 11479,5387 11415,5546 11479,5549 11497,5616 11399,5569 11367,5490 11335,5394 11335,5394 11293,5638 11245,5749 11196,5861 11048,6050 11048,6050 11048,6050 11131,5762 11140,5650 11156,5456 11126,5193 11102,5324 11076,5468 11112,5656 11027,5893 10996,5982 10863,6126 10863,6126 10863,6126 10924,5895 10932,5777 10948,5526 10924,4857 10886,5085 10852,5285 10891,5545 10863,5804 10844,5989 10761,6143 10761,6351 10761,6496 11021,6002 11021,6002 L 10980,6220 C 10964,6303 11130,6037 11130,6037 11130,6037 10998,6404 10898,6570 10867,6620 10788,6707 10788,6707 10727,6814 10752,6798 10786,6810 10786,6810 10924,6682 10964,6596 11046,6420 11164,6059 11224,6059 L 11255,6047 C 11157,6239 11078,6580 10994,6778 10909,6977 10697,7263 10672,7297 10672,7307 10672,7318 10671,7328 L 10670,6668 10612,5826 10686,6049 C 10686,6049 10699,5702 10695,5528 10691,5354 10696,5178 10662,5007 10630,4850 10505,4553 10505,4553 10633,4703 10683,4834 10733,5049 10739,4853 10689,4760 10579,4545 L 10583,4422 Z M 13434,4666 C 13434,4666 13545,4736 13562,4793 13577,4848 13536,4902 13537,4959 13539,5081 13567,5117 13602,5234 13614,5273 13649,5370 13657,5422 13665,5476 13671,5574 13663,5628 13660,5650 13642,5692 13642,5692 13266,5753 13093,5623 13009,5451 12379,5624 12038,5448 12065,5438 L 11835,5351 11632,5204 C 11742,5254 11831,5299 12017,5361 L 11996,5231 C 12059,5408 12408,5505 12634,5424 12387,5364 12284,5259 12194,5151 12329,5290 12752,5419 12788,5273 12603,5261 12259,5012 12329,4960 12461,5066 12571,5179 12858,5182 L 12881,5102 C 12946,5108 12964,5240 13001,5308 13147,5573 13300,5704 13611,5602 13611,5602 13659,5427 13561,5262 13534,5217 13427,5027 13427,5027 L 13486,5069 13417,4866 13460,4909 C 13460,4909 13481,4812 13470,4765 13461,4721 13434,4666 13434,4666 Z M 3730,4877 C 3881,4878 3864,5206 3858,5328 3850,5477 3822,5627 3776,5768 3701,5994 3513,6409 3513,6409 3513,6409 3573,6294 3612,6244 3674,6167 3832,6039 3832,6039 3832,6039 3666,6283 3607,6415 3549,6543 3472,6814 3472,6814 3472,6814 3556,6647 3618,6579 3710,6479 3877,6381 3877,6381 3877,6381 3729,6620 3665,6785 3614,6917 3583,7202 3583,7202 3583,7202 3772,7063 3882,6920 3926,6863 3985,6702 3985,6702 3985,6702 4004,6900 3941,7037 3852,7233 3560,7556 3560,7556 3866,7430 4037,7243 4177,7090 4088,7328 3795,7573 3549,7786 3884,7596 4142,7404 4228,7291 4091,7556 3810,7717 3556,7897 3838,7806 3844,7841 4051,7620 3918,8000 3484,7927 3439,8222 3652,8111 3724,8045 3927,8001 3763,8134 3736,8105 3559,8314 3669,8292 3825,8254 3843,8274 3727,8340 3613,8405 3418,8622 3542,8565 3655,8540 3754,8550 3638,8599 3523,8647 3412,8752 3556,8708 3585,8774 3651,8786 3515,8859 3409,8898 3256,9081 3343,9032 3494,9020 3622,8942 3718,8884 3778,8795 3830,8799 3776,8829 3775,8942 3698,9007 3562,9123 3354,9180 3238,9386 3344,9328 3398,9320 3455,9321 3375,9402 3289,9487 3195,9650 3292,9587 3378,9550 3450,9553 3362,9604 3275,9692 3187,9828 3187,9828 3288,9752 3407,9692 3480,9656 3571,9641 3618,9610 3702,9553 3821,9425 3821,9425 3821,9425 3783,9565 3668,9660 3627,9695 3493,9751 3493,9751 3391,9810 3268,9896 3144,10039 3237,10025 3472,9809 3652,9901 3459,9928 3178,10135 3059,10214 3059,10214 3299,10178 3363,10176 3520,10172 3597,10326 3589,10328 3589,10328 3371,10269 3135,10457 3061,10517 3000,10604 2983,10697 2972,10759 3015,10960 3015,11023 3016,11093 2975,11204 2975,11204 2975,11204 2746,11141 2700,10996 2637,10796 2840,10613 2878,10407 2907,10250 2859,10087 2878,9929 2960,9244 3365,8479 3356,7616 3352,7279 3328,7054 3245,6811 3236,6784 3194,6826 3194,6826 3194,6826 3354,6240 3389,5939 3414,5731 3423,5457 3498,5230 3538,5107 3557,4933 3677,4887 3697,4880 3714,4877 3730,4877 Z M 12170,5123 C 12178,5133 12186,5142 12194,5151 12185,5142 12177,5133 12170,5123 Z M 9598,6516 C 9616,6515 9634,6519 9645,6530 9718,6603 9677,6705 9656,6806 9632,6924 9591,7045 9513,7137 9473,7183 9419,7245 9359,7236 9325,7231 9303,7191 9293,7159 9260,7061 9281,6991 9315,6894 9340,6819 9429,6717 9474,6652 9510,6600 9490,6559 9546,6530 9561,6523 9580,6517 9598,6516 Z M 13827,9141 C 13933,9287 14103,9872 13773,9962 13525,10030 13421,9725 13551,9579 13551,9579 13506,9706 13553,9759 13585,9796 13659,9826 13744,9781 13868,9715 13899,9561 13891,9462 13883,9362 13860,9255 13827,9141 Z M 3699,10715 C 3831,10718 3889,10864 3916,11002 3969,10953 4049,10925 4127,10926 4145,10926 4162,10928 4179,10931 4230,10941 4285,10973 4323,11010 4359,11046 4393,11130 4393,11130 L 4364,11177 4273,11240 4163,11261 4048,11250 3860,11203 C 3860,11203 3859,11199 3859,11197 L 3823,11212 C 3843,11003 3823,10802 3699,10715 Z M 9888,10719 C 10020,10722 10078,10869 10105,11007 10159,10958 10238,10929 10317,10931 10334,10931 10351,10933 10368,10936 10420,10946 10474,10978 10512,11014 10549,11050 10583,11135 10583,11135 L 10554,11182 10462,11244 10352,11265 10237,11255 10049,11208 C 10049,11208 10049,11204 10048,11202 L 10018,11214 10017,11223 9913,11219 9773,11224 9629,11220 9470,11194 C 9470,11194 9457,11123 9467,11093 9498,10999 9599,10937 9733,10938 9752,10939 9771,10940 9790,10943 9847,10952 9907,10981 9949,11013 9979,11036 10006,11081 10019,11105 10022,10939 9990,10791 9888,10719 Z M 3505,10942 C 3524,10943 3543,10944 3562,10947 3619,10956 3679,10985 3721,11017 3762,11049 3799,11125 3799,11125 L 3789,11227 3685,11223 3545,11228 3401,11224 3242,11198 C 3242,11198 3229,11127 3239,11097 3270,11003 3371,10940 3505,10942 Z M 4134,11028 C 4090,11027 4039,11039 4001,11062 3980,11075 3960,11098 3964,11122 3971,11161 4013,11171 4056,11182 4106,11196 4183,11202 4234,11190 4267,11182 4303,11179 4309,11146 4315,11119 4296,11087 4273,11072 4232,11046 4183,11029 4134,11028 Z M 9741,11030 C 9692,11029 9693,11039 9651,11060 9628,11071 9606,11092 9611,11114 9618,11148 9664,11157 9712,11167 9768,11180 9794,11185 9851,11174 9888,11167 9927,11165 9935,11135 9941,11111 9920,11083 9894,11069 9849,11046 9794,11031 9741,11030 Z M 10324,11033 C 10279,11031 10228,11044 10190,11067 10170,11079 10150,11103 10154,11127 10161,11165 10202,11175 10245,11187 10296,11201 10372,11207 10423,11195 10456,11187 10492,11184 10499,11150 10504,11123 10485,11092 10462,11077 10422,11051 10372,11034 10324,11033 Z M 3513,11034 C 3464,11032 3465,11043 3423,11064 3400,11075 3378,11096 3382,11118 3390,11152 3436,11161 3484,11171 3540,11184 3566,11189 3623,11178 3660,11171 3699,11169 3707,11139 3712,11115 3691,11087 3666,11073 3621,11050 3566,11035 3513,11034 Z"/>
       </g>
      </g>
      <g class="com.sun.star.drawing.ClosedBezierShape">
       <g id="id22">
        <rect class="BoundingBox" stroke="none" fill="none" x="12937" y="3998" width="322" height="241"/>
        <path fill="rgb(255,255,0)" stroke="none" d="M 13257,4113 C 13244,4167 13219,4208 13201,4232 12986,4266 12950,4125 12937,4046 12937,4046 12945,4012 13019,4001 13185,3975 13257,4113 13257,4113 Z"/>
       </g>
      </g>
      <g class="com.sun.star.drawing.ClosedBezierShape">
       <g id="id23">
        <rect class="BoundingBox" stroke="none" fill="none" x="13026" y="4007" width="203" height="184"/>
        <path fill="rgb(126,25,17)" stroke="none" d="M 13195,4019 C 13236,4044 13239,4099 13202,4143 13164,4187 13101,4203 13060,4178 13019,4153 13016,4098 13053,4054 13078,4025 13115,4007 13151,4007 13167,4008 13182,4012 13195,4019 Z M 13141,4025 C 13127,4024 13105,4032 13089,4050 13068,4075 13083,4093 13094,4100 13105,4106 13128,4111 13149,4086 13170,4062 13164,4035 13153,4028 13150,4027 13146,4025 13141,4025 Z"/>
       </g>
      </g>
      <g class="com.sun.star.drawing.OpenBezierShape">
       <g id="id24">
        <rect class="BoundingBox" stroke="none" fill="none" x="9306" y="2456" width="3715" height="3085"/>
        <path fill="none" stroke="rgb(126,25,17)" stroke-width="37" stroke-linejoin="miter" d="M 13014,5448 C 12317,5651 11671,5429 11315,4845 10988,4308 11310,3456 10967,2929 10751,2598 10316,2432 9957,2485 9844,2502 9763,2548 9678,2624 9498,2786 9519,2984 9456,3143 9428,3212 9361,3232 9333,3301 9314,3347 9333,3451 9333,3451 9333,3451 9475,3416 9544,3433 9663,3463 9770,3543 9852,3635 9969,3768 10015,3978 10133,4110 10259,4251 10441,4275 10564,4418 10648,4516 10645,4613 10731,4708 10813,4799 10949,4873 11039,4955 11167,5071 11298,5374 11373,5368 11520,5299 11570,5239 11585,5183"/>
       </g>
      </g>
      <g class="com.sun.star.drawing.ClosedBezierShape">
       <g id="id25">
        <rect class="BoundingBox" stroke="none" fill="none" x="12876" y="3937" width="421" height="351"/>
        <path fill="none" stroke="rgb(126,25,17)" stroke-width="37" stroke-linejoin="miter" d="M 13273,4242 C 13254,4178 13297,4047 13167,3980 13064,3928 12978,3972 12896,3996 12907,4202 13048,4324 13273,4242 Z"/>
       </g>
      </g>
      <g class="com.sun.star.drawing.ClosedBezierShape">
       <g id="id26">
        <rect class="BoundingBox" stroke="none" fill="none" x="3155" y="2403" width="10483" height="5397"/>
        <path fill="rgb(126,25,17)" stroke="none" d="M 10393,2403 C 10499,2403 10608,2415 10713,2437 10953,2488 11177,2594 11311,2755 11446,2918 11499,3075 11509,3239 11516,3360 11496,3441 11471,3553 11446,3665 11417,3809 11384,4058 11380,3805 11410,3658 11435,3545 11460,3433 11478,3357 11472,3241 11463,3084 11413,2936 11282,2779 11156,2627 10940,2523 10705,2473 10471,2424 10218,2429 10021,2494 L 10009,2459 C 10112,2425 10228,2407 10348,2404 10363,2403 10378,2403 10393,2403 Z M 6518,3673 C 6518,3673 6411,3757 6268,3934 6124,4112 5955,4398 5852,4835 5702,5474 5789,6268 5699,6926 5662,7197 5584,7552 5460,7799 L 5427,7782 C 5547,7542 5625,7190 5662,6921 5752,6270 5664,5475 5816,4827 5920,4385 6092,4092 6239,3911 6386,3729 6518,3673 6518,3673 Z M 13108,3721 C 13124,3721 13140,3722 13155,3724 13309,3749 13408,3842 13458,3955 13495,4039 13500,4122 13492,4206 13487,4251 13480,4293 13471,4280 13467,4275 13465,4259 13465,4227 13465,4227 13465,4183 13459,4128 13454,4074 13443,4009 13425,3972 13373,3868 13291,3784 13149,3761 13098,3753 13035,3764 12970,3779 12905,3795 12839,3814 12780,3819 12719,3824 12660,3781 12660,3781 12660,3781 12729,3786 12777,3782 12831,3778 12896,3759 12961,3744 12994,3736 13027,3728 13060,3724 13076,3722 13092,3721 13108,3721 Z M 13063,3939 C 13099,3938 13137,3945 13176,3965 13221,3988 13248,4019 13264,4052 13279,4085 13283,4120 13285,4151 13287,4182 13286,4211 13290,4230 13301,4280 13306,4263 13308,4289 13273,4283 13263,4268 13254,4237 13249,4211 13250,4183 13248,4153 13247,4124 13243,4094 13230,4068 13218,4041 13197,4017 13160,3998 13081,3957 13016,3978 12946,4001 12912,4012 12877,4024 12840,4027 12803,4030 12754,4013 12736,3978 12777,3992 12806,3992 12837,3990 12868,3987 12900,3977 12935,3966 12970,3954 13007,3943 13048,3939 13053,3939 13058,3939 13063,3939 Z M 8916,4891 C 8917,4891 8917,4891 8917,4891 8923,4897 8913,5015 8907,5100 8903,5169 8921,5494 8958,5682 8996,5874 9109,6053 9136,6256 9173,6523 9075,6791 9111,7045 9122,7125 9148,7202 9178,7278 L 9144,7292 C 9113,7214 9086,7134 9074,7051 9036,6784 9134,6516 9100,6261 9074,6068 8961,5890 8922,5690 8883,5493 8858,5172 8870,5101 8898,4949 8911,4894 8916,4891 Z M 12830,5030 C 12881,5060 12909,5111 12931,5166 12984,5300 13016,5452 13104,5557 13193,5663 13338,5726 13632,5679 L 13637,5716 C 13336,5764 13173,5696 13076,5581 12979,5466 12948,5309 12897,5179 12876,5127 12850,5080 12830,5030 Z M 10583,5749 C 10584,5748 10584,5748 10585,5749 10594,5754 10617,5808 10626,5812 10626,5812 10717,6796 10689,7329 L 10653,7327 C 10679,6801 10589,5815 10589,5815 10580,5767 10580,5750 10583,5749 Z M 3486,5987 C 3458,6127 3445,6221 3216,6833 3208,6856 3199,6879 3191,6902 L 3156,6889 C 3165,6866 3173,6843 3182,6820 3410,6208 3422,6118 3486,5987 Z"/>
       </g>
      </g>
      <g class="com.sun.star.drawing.ClosedBezierShape">
       <g id="id27">
        <rect class="BoundingBox" stroke="none" fill="none" x="1322" y="1586" width="13391" height="9694"/>
        <path fill="none" stroke="rgb(123,61,0)" stroke-width="37" stroke-linejoin="miter" d="M 11928,1605 C 12088,1603 12239,1620 12375,1670 13058,1919 13373,2980 13373,2980 14141,3561 14096,4105 14150,4411 14150,4411 14689,5013 14693,5711 14695,6238 14263,6812 14149,7327 14008,7969 14399,8873 14344,9527 14317,9845 14186,10213 13834,10250 13262,10310 13366,9803 13045,9753 12994,9745 12916,9771 12916,9771 12905,9642 13103,9524 13292,9666 13339,9537 13484,9521 13550,9579 13550,9579 13505,9706 13552,9759 13584,9796 13658,9826 13743,9781 13867,9715 13898,9561 13890,9462 13862,9104 13639,8668 13478,8118 13315,7558 13295,6819 13379,6402 13423,6183 13495,5916 13634,5698 13239,5761 13097,5624 13015,5448 12653,5554 12305,5544 12004,5429 12004,5429 11744,5485 11638,5559 11445,5693 11362,5837 11255,6047 11157,6239 11078,6580 10994,6778 10909,6977 10697,7263 10672,7297 10672,7307 10672,7318 10671,7328 10653,7690 10634,7990 10569,8346 10488,8792 10273,9272 10213,9721 10194,9860 10188,10003 10213,10141 10224,10206 10251,10155 10280,10326 10310,10501 10503,10597 10553,10767 10587,10885 10614,11029 10563,11140 10535,11200 10470,11237 10411,11253 10303,11282 10078,11207 10078,11207 9992,11252 9614,11209 9614,11209 9535,11189 9394,11214 9297,11206 9297,11206 9090,11141 9049,10996 8992,10795 9213,10536 9246,10329 9279,10128 9134,9305 9245,8779 9263,8697 9292,8644 9309,8563 9368,8285 9354,7991 9309,7710 9284,7554 9208,7410 9152,7261 9061,7263 8601,7276 8201,7318 7529,7388 6766,7663 6025,7800 5764,7849 5476,7807 5443,7790 5183,8308 4631,8524 4371,9041 4173,9434 3994,9895 4077,10327 4111,10503 4326,10598 4382,10767 4421,10885 4450,11029 4393,11140 4362,11200 4290,11237 4224,11253 4102,11282 3851,11207 3851,11207 3755,11252 3332,11209 3332,11209 3244,11189 3086,11214 2977,11207 2977,11207 2746,11141 2700,10996 2637,10796 2840,10613 2878,10407 2907,10250 2859,10087 2878,9929 2960,9244 3365,8479 3356,7616 3352,7279 3328,7054 3245,6811 3236,6784 3199,6826 3199,6826 2835,7755 2682,8604 2020,9568 1854,9811 1680,10157 1368,10359 1472,10145 1689,9733 1886,9449 2085,9163 2307,8793 2780,7230 3091,6204 3079,4776 3805,3728 4044,3323 4344,2947 4828,2618 5442,2201 6146,1869 6879,1747 7658,1619 8509,1904 9298,1910 9562,1912 9768,1828 10032,1807 10201,1794 10369,1866 10537,1844 10908,1796 11451,1611 11928,1605 Z"/>
       </g>
      </g>
      <g class="com.sun.star.drawing.ClosedBezierShape">
       <g id="id28">
        <rect class="BoundingBox" stroke="none" fill="none" x="12963" y="5448" width="3522" height="1679"/>
        <path fill="rgb(255,255,215)" stroke="none" d="M 13014,5448 C 13096,5624 13237,5760 13630,5698 14379,6630 15416,6893 16484,7087 15709,7238 13781,6999 12963,5462 12980,5458 12997,5453 13014,5448 Z"/>
       </g>
      </g>
      <g class="com.sun.star.drawing.ClosedBezierShape">
       <g id="id29">
        <rect class="BoundingBox" stroke="none" fill="none" x="12963" y="5448" width="3522" height="1679"/>
        <path fill="rgb(255,245,206)" stroke="none" d="M 16484,7087 C 15709,7238 13781,6999 12963,5462 12980,5458 12997,5453 13014,5448 13077,5583 13175,5695 13395,5711 13778,6330 14952,7116 16484,7087 Z"/>
       </g>
      </g>
      <g class="com.sun.star.drawing.ClosedBezierShape">
       <g id="id30">
        <rect class="BoundingBox" stroke="none" fill="none" x="12963" y="5448" width="2792" height="1669"/>
        <path fill="rgb(232,242,161)" stroke="none" d="M 15754,7116 C 14844,7048 13584,6629 12963,5462 12980,5458 12997,5453 13014,5448 13056,5538 13114,5618 13213,5666 13679,6442 14555,6902 15754,7116 Z"/>
       </g>
      </g>
      <g class="com.sun.star.drawing.ClosedBezierShape">
       <g id="id31">
        <rect class="BoundingBox" stroke="none" fill="none" x="12944" y="5429" width="3560" height="1717"/>
        <path fill="none" stroke="rgb(126,25,17)" stroke-width="37" stroke-linejoin="round" d="M 13014,5448 C 13096,5624 13237,5760 13630,5698 14379,6630 15416,6893 16484,7087 15709,7238 13781,6999 12963,5462 12980,5458 12997,5453 13014,5448 Z"/>
       </g>
      </g>
      <g class="com.sun.star.drawing.ClosedBezierShape">
       <g id="id32">
        <rect class="BoundingBox" stroke="none" fill="none" x="12720" y="5449" width="567" height="808"/>
        <path fill="rgb(232,162,2)" stroke="none" d="M 13247,5680 C 13127,5635 13061,5548 13015,5449 12915,5477 12817,5498 12720,5509 12968,5623 13149,5907 13074,6256 13154,6214 13374,5955 13247,5680 Z"/>
       </g>
      </g>
      <g class="com.sun.star.drawing.ClosedBezierShape">
       <g id="id33">
        <rect class="BoundingBox" stroke="none" fill="none" x="12651" y="5426" width="655" height="866"/>
        <path fill="none" stroke="rgb(126,25,17)" stroke-width="37" stroke-linejoin="miter" d="M 13247,5680 C 13127,5635 13061,5548 13015,5449 12915,5477 12817,5498 12720,5509 12968,5623 13149,5907 13074,6256 13154,6214 13374,5955 13247,5680 Z"/>
       </g>
      </g>
     </g>
    </g>
   </g>
  </g>
 </g>
</svg>